<?xml version="1.0" encoding="utf-8"?>
<!-- Generator: Adobe Illustrator 19.1.0, SVG Export Plug-In . SVG Version: 6.00 Build 0)  -->
<svg version="1.1" id="Layer_1" xmlns="http://www.w3.org/2000/svg" xmlns:xlink="http://www.w3.org/1999/xlink" x="0px" y="0px"
	 viewBox="0 0 807.4 675" style="enable-background:new 0 0 807.4 675;" xml:space="preserve">
<style type="text/css">
	.st0{fill:#9AE9EF;}
	.st1{fill:#FFFFFF;}
	.st2{fill:#D9F9FF;}
</style>
<ellipse class="st0" cx="343.6" cy="647.3" rx="193.2" ry="27.7"/>
<g>
	<path class="st1" d="M476.9,5.1H209.7c-20,0-36.2,16.2-36.2,36.2v300.2c0,20,16.2,36.2,36.2,36.2h267.2c20,0,36.2-16.2,36.2-36.2
		V41.2C513.1,21.2,496.9,5.1,476.9,5.1z"/>
</g>
<g>
	<path class="st1" d="M453,616.5l-22.1-134.2H254.9l-22.1,134.2c-0.9,2.6-1.4,5.4-1.4,8.4c0,12.3,8.3,22.2,18.4,22.2h186.1
		c10.2,0,18.4-9.9,18.4-22.2C454.4,621.9,453.9,619.1,453,616.5z"/>
</g>
<g>
	<path class="st1" d="M445.8,584.8H237.9c-17.2,0-31.1,13.9-31.1,31.1v0v31.1h31.1h207.9h31.1V616v0
		C476.9,598.8,463,584.8,445.8,584.8z"/>
</g>
<g>
	<path class="st2" d="M445.8,584.8H237.9c-17.2,0-31.1,13.9-31.1,31.1v0v31.1h31.1h207.9h31.1V616v0
		C476.9,598.8,463,584.8,445.8,584.8z"/>
</g>
<g>
	<path class="st1" d="M343.3,551.3c95.9,0,173.7-77.7,173.7-173.7H169.7C169.7,473.5,247.4,551.3,343.3,551.3z"/>
</g>
<g>
	<path class="st2" d="M296.7,544.9c14.8,4.1,30.5,6.3,46.7,6.3c95.9,0,173.7-77.7,173.7-173.7h-93.3
		C423.7,457.3,370,524.5,296.7,544.9z"/>
</g>
<g>
	<path class="st2" d="M487.2,393.6H170.4c0.4,4.4,1,8.8,1.7,13.2h315V393.6z"/>
</g>
<g>
	<path class="st1" d="M400.6,584.8H237.9v62.2h162.7h31.1V616v0C431.8,598.8,417.8,584.8,400.6,584.8z"/>
</g>
<g>
	<path class="st1" d="M237.9,584.8h162.7v62.2H237.9h-31.1V616v0C206.8,598.8,220.7,584.8,237.9,584.8z"/>
</g>
<g>
	<polygon class="st2" points="391.2,523.4 401.3,584.8 447.8,584.9 437.6,523.4 	"/>
</g>
<g>
	<path class="st1" d="M475.1,369.2V228.5c0-83.4-57.2-151-127.9-151H340c-70.6,0-127.9,67.6-127.9,151v140.7H475.1z"/>
	<path class="st2" d="M490.2,384.4H197V228.5c0-91.6,64.2-166.1,143-166.1h7.2c78.9,0,143,74.5,143,166.1V384.4z M227.3,354.1h232.6
		V228.5c0-74.9-50.6-135.8-112.7-135.8H340c-62.1,0-112.7,60.9-112.7,135.8V354.1z"/>
</g>
<g>
	<path class="st2" d="M515.4,39.8h-345c-11,0-19.9-8.9-19.9-19.9v0c0-11,8.9-19.9,19.9-19.9l345,0c11,0,19.9,8.9,19.9,19.9v0
		C535.3,30.9,526.4,39.8,515.4,39.8z"/>
</g>
<g>
	<path class="st1" d="M403.8,39.8h-233c-11,0-19.9-8.9-19.9-19.9v0c0-11,8.9-19.9,19.9-19.9l233,0c11,0,19.9,8.9,19.9,19.9v0
		C423.7,30.9,414.8,39.8,403.8,39.8z"/>
</g>
<g>
	<circle class="st2" cx="480.3" cy="92.5" r="23.6"/>
</g>
<g>
	<path class="st2" d="M534.1,92.5h-48.3c-6.5,0-11.8-5.3-11.8-11.8v0c0-6.5,5.3-11.8,11.8-11.8h48.3c6.5,0,11.8,5.3,11.8,11.8v0
		C545.9,87.2,540.6,92.5,534.1,92.5z"/>
</g>
<g>
	<rect x="480.3" y="68.9" class="st2" width="65.6" height="11.8"/>
</g>
<g>
	<path class="st1" d="M474,377.6c0-0.4,0-0.7,0-1.1V205.7c0-72.3-58.6-130.9-130.9-130.9h0c-72.3,0-130.9,58.6-130.9,130.9v170.8
		c0,0.4,0,0.7,0,1.1H474z"/>
	<path class="st2" d="M474,392.8H197.2l-0.1-16.3V205.7c0-80.6,65.5-146.1,146.1-146.1s146.1,65.5,146.1,146.1l-0.1,186.9L474,392.8
		z M227.3,362.4h231.5l0-156.7C458.9,141.9,407,90,343.1,90s-115.8,51.9-115.8,115.8V362.4z"/>
</g>
<g>
	<path class="st2" d="M515.4,393.6h-345c-11,0-19.9-8.9-19.9-19.9v0c0-11,8.9-19.9,19.9-19.9h345c11,0,19.9,8.9,19.9,19.9v0
		C535.3,384.7,526.4,393.6,515.4,393.6z"/>
</g>
<g>
	<path class="st1" d="M403.8,393.6h-233c-11,0-19.9-8.9-19.9-19.9v0c0-11,8.9-19.9,19.9-19.9h233c11,0,19.9,8.9,19.9,19.9v0
		C423.7,384.7,414.8,393.6,403.8,393.6z"/>
</g>
<rect x="173.6" y="39.8" class="st2" width="339.5" height="15.3"/>
<path class="st2" d="M795.2,213.8H664.9c-6.7,0-12.2-5.5-12.2-12.2v0c0-6.7,5.5-12.2,12.2-12.2h130.3c6.7,0,12.2,5.5,12.2,12.2v0
	C807.4,208.3,801.9,213.8,795.2,213.8z"/>
<path class="st1" d="M777.4,278.4h-94.6c-9.8,0-17.8-8-17.8-17.8v-87.3c0-9.8,8-17.8,17.8-17.8h94.6c9.8,0,17.8,8,17.8,17.8v87.3
	C795.2,270.4,787.2,278.4,777.4,278.4z"/>
<rect x="664.9" y="195.2" class="st1" width="130.3" height="96.2"/>
<g>
	<g>
		<g>
			<g>
				<path class="st2" d="M677,241.1h-7.2c-1.1,0-2.1-0.9-2.1-2c0-1.1,0.9-2,2.1-2h7.2c1.1,0,2.1,0.9,2.1,2
					C679,240.2,678.1,241.1,677,241.1z"/>
			</g>
			<g>
				<path class="st2" d="M691.2,241.1h-7.2c-1.1,0-2.1-0.9-2.1-2c0-1.1,0.9-2,2.1-2h7.2c1.1,0,2.1,0.9,2.1,2
					C693.2,240.2,692.3,241.1,691.2,241.1z"/>
			</g>
			<g>
				<path class="st2" d="M705.3,241.1h-7.2c-1.1,0-2.1-0.9-2.1-2c0-1.1,0.9-2,2.1-2h7.2c1.1,0,2.1,0.9,2.1,2
					C707.4,240.2,706.4,241.1,705.3,241.1z"/>
			</g>
			<g>
				<path class="st2" d="M719.5,241.1h-7.2c-1.1,0-2.1-0.9-2.1-2c0-1.1,0.9-2,2.1-2h7.2c1.1,0,2.1,0.9,2.1,2
					C721.5,240.2,720.6,241.1,719.5,241.1z"/>
			</g>
			<g>
				<path class="st2" d="M733.6,241.1h-7.2c-1.1,0-2.1-0.9-2.1-2c0-1.1,0.9-2,2.1-2h7.2c1.1,0,2.1,0.9,2.1,2
					C735.7,240.2,734.8,241.1,733.6,241.1z"/>
			</g>
			<g>
				<path class="st2" d="M747.8,241.1h-7.2c-1.1,0-2.1-0.9-2.1-2c0-1.1,0.9-2,2.1-2h7.2c1.1,0,2.1,0.9,2.1,2
					C749.9,240.2,748.9,241.1,747.8,241.1z"/>
			</g>
			<g>
				<path class="st2" d="M762,241.1h-7.2c-1.1,0-2.1-0.9-2.1-2c0-1.1,0.9-2,2.1-2h7.2c1.1,0,2.1,0.9,2.1,2
					C764,240.2,763.1,241.1,762,241.1z"/>
			</g>
			<g>
				<path class="st2" d="M776.1,241.1h-7.2c-1.1,0-2.1-0.9-2.1-2c0-1.1,0.9-2,2.1-2h7.2c1.1,0,2.1,0.9,2.1,2
					C778.2,240.2,777.3,241.1,776.1,241.1z"/>
			</g>
			<g>
				<path class="st2" d="M790.3,241.1h-7.2c-1.1,0-2.1-0.9-2.1-2c0-1.1,0.9-2,2.1-2h7.2c1.1,0,2.1,0.9,2.1,2
					C792.3,240.2,791.4,241.1,790.3,241.1z"/>
			</g>
		</g>
	</g>
</g>
<path class="st0" d="M39.9,536.1v-79.7c0-4.3,3.4-7.7,7.7-7.7h0c4.3,0,7.7,3.4,7.7,7.7v79.7c0,4.3-3.4,7.7-7.7,7.7h0
	C43.3,543.8,39.9,540.4,39.9,536.1z"/>
<path class="st0" d="M39.9,568.3v-9c0-4.3,3.4-7.7,7.7-7.7h0c4.3,0,7.7,3.4,7.7,7.7v9c0,4.3-3.4,7.7-7.7,7.7h0
	C43.3,576,39.9,572.6,39.9,568.3z"/>
<path class="st0" d="M601.7,504h-9c-4.3,0-7.7-3.4-7.7-7.7v0c0-4.3,3.4-7.7,7.7-7.7h9c4.3,0,7.7,3.4,7.7,7.7v0
	C609.4,500.5,606,504,601.7,504z"/>
<path class="st0" d="M7.7,488.6h79.7c4.3,0,7.7,3.4,7.7,7.7v0c0,4.3-3.4,7.7-7.7,7.7H7.7c-4.3,0-7.7-3.4-7.7-7.7v0
	C0,492,3.4,488.6,7.7,488.6z"/>
<path class="st0" d="M556.9,536.1v-79.7c0-4.3,3.4-7.7,7.7-7.7l0,0c4.3,0,7.7,3.4,7.7,7.7v79.7c0,4.3-3.4,7.7-7.7,7.7l0,0
	C560.3,543.8,556.9,540.4,556.9,536.1z"/>
<path class="st0" d="M618.9,471.8v-79.7c0-4.3,3.4-7.7,7.7-7.7l0,0c4.3,0,7.7,3.4,7.7,7.7v79.7c0,4.3-3.4,7.7-7.7,7.7l0,0
	C622.4,479.5,618.9,476.1,618.9,471.8z"/>
<path class="st0" d="M524.7,488.6h39.9c4.3,0,7.7,3.4,7.7,7.7v0c0,4.3-3.4,7.7-7.7,7.7h-39.9c-4.3,0-7.7-3.4-7.7-7.7v0
	C517,492,520.5,488.6,524.7,488.6z"/>
<path class="st0" d="M7.7,261.4h84.6c4.3,0,7.7,3.4,7.7,7.7v0c0,4.3-3.4,7.7-7.7,7.7H7.7c-4.3,0-7.7-3.4-7.7-7.7l0,0
	C0,264.8,3.4,261.4,7.7,261.4z"/>
<path class="st0" d="M115.7,297v79.7c0,4.3-3.4,7.7-7.7,7.7h0c-4.3,0-7.7-3.4-7.7-7.7V297c0-4.3,3.4-7.7,7.7-7.7h0
	C112.2,289.3,115.7,292.7,115.7,297z"/>
<path class="st0" d="M55.3,229.2v79.7c0,4.3-3.4,7.7-7.7,7.7h0c-4.3,0-7.7-3.4-7.7-7.7v-79.7c0-4.3,3.4-7.7,7.7-7.7h0
	C51.8,221.5,55.3,225,55.3,229.2z"/>
<path class="st0" d="M55.3,344.5v79.7c0,4.3-3.4,7.7-7.7,7.7h0c-4.3,0-7.7-3.4-7.7-7.7v-79.7c0-4.3,3.4-7.7,7.7-7.7h0
	C51.8,336.8,55.3,340.3,55.3,344.5z"/>
<path class="st0" d="M147.8,344.5H68.1c-4.3,0-7.7-3.4-7.7-7.7l0,0c0-4.3,3.4-7.7,7.7-7.7h79.7c4.3,0,7.7,3.4,7.7,7.7l0,0
	C155.5,341.1,152.1,344.5,147.8,344.5z"/>
<path class="st0" d="M108,571.5H75.8c-4.3,0-7.7-3.4-7.7-7.7v0c0-4.3,3.4-7.7,7.7-7.7H108c4.3,0,7.7,3.4,7.7,7.7v0
	C115.7,568.1,112.2,571.5,108,571.5z"/>
<path class="st0" d="M626.6,439.7h-39.9c-4.3,0-7.7-3.4-7.7-7.7v0c0-4.3,3.4-7.7,7.7-7.7h39.9c4.3,0,7.7,3.4,7.7,7.7v0
	C634.3,436.2,630.9,439.7,626.6,439.7z"/>
</svg>
