<?xml version="1.0" encoding="utf-8"?>
<!-- Generator: Adobe Illustrator 19.1.0, SVG Export Plug-In . SVG Version: 6.00 Build 0)  -->
<svg version="1.1" id="Layer_1" xmlns="http://www.w3.org/2000/svg" xmlns:xlink="http://www.w3.org/1999/xlink" x="0px" y="0px"
	 viewBox="0 0 153.9 65.3" style="enable-background:new 0 0 153.9 65.3;" xml:space="preserve">
<style type="text/css">
	.st0{fill:#FFFFFF;}
</style>
<path class="st0" d="M0,8.2h19c4.5,0,7.9,1.1,10.3,3.2c2.3,2.2,3.5,5.3,3.5,9.4c0,2.5-0.4,4.5-1.3,6.1s-2.2,3-4.1,4.1
	c1.8,0.3,3.4,0.9,4.6,1.6c1.3,0.7,2.3,1.6,3.1,2.6c0.8,1,1.4,2.2,1.7,3.5c0.3,1.3,0.5,2.7,0.5,4.2c0,2.3-0.4,4.3-1.2,6.1
	c-0.8,1.8-1.9,3.3-3.4,4.5c-1.5,1.2-3.2,2.1-5.3,2.7c-2.1,0.6-4.4,0.9-7,0.9H0V8.2z M12.7,27.5h2.3c4,0,6-1.6,6-4.7
	c0-3.2-2-4.7-6-4.7h-2.3V27.5z M12.7,47.4h2.8c3.2,0,5.5-0.4,6.9-1.2c1.4-0.8,2.1-2.1,2.1-4c0-1.8-0.7-3.1-2.1-4
	C21,37.4,18.7,37,15.5,37h-2.8V47.4z"/>
<path class="st0" d="M111,8.2h18.9c3.3,0,6.5,0.7,9.4,2c2.9,1.3,5.5,3.1,7.7,5.4c2.2,2.2,3.9,4.8,5.2,7.8c1.3,3,1.9,6.1,1.9,9.3
	c0,3.2-0.6,6.3-1.9,9.3c-1.2,3-2.9,5.6-5.1,7.8c-2.2,2.3-4.7,4.1-7.7,5.4c-2.9,1.3-6.1,2-9.5,2H111V8.2z M123.7,46.4h2.9
	c2.2,0,4.2-0.3,5.9-1c1.7-0.7,3.2-1.6,4.4-2.9c1.2-1.2,2.1-2.7,2.7-4.3c0.6-1.7,0.9-3.5,0.9-5.5c0-2-0.3-3.8-1-5.5
	c-0.6-1.7-1.6-3.1-2.8-4.4c-1.2-1.2-2.7-2.2-4.4-2.9c-1.7-0.7-3.7-1-5.9-1h-2.9V46.4z"/>
<g>
	<path class="st0" d="M83.6,21.8c-5,0-9.1,4.1-9.1,9.1c0,5,4.1,9.1,9.1,9.1s9.1-4.1,9.1-9.1C92.7,25.9,88.6,21.8,83.6,21.8z
		 M83.6,36.6c-3.1,0-5.7-2.6-5.7-5.7s2.6-5.7,5.7-5.7s5.7,2.6,5.7,5.7S86.7,36.6,83.6,36.6z"/>
	<path class="st0" d="M48.1,25.3l1.5,0.7c0.3,0.2,0.7,0,0.9-0.3c0.2-0.3,0-0.7-0.3-0.9l-1.5-0.7c-0.3-0.2-0.7,0-0.9,0.3
		C47.6,24.8,47.7,25.2,48.1,25.3z"/>
	<path class="st0" d="M51.2,26.8l1.5,0.7c0.3,0.2,0.7,0,0.9-0.3c0.2-0.3,0-0.7-0.3-0.9l-1.5-0.7c-0.3-0.2-0.7,0-0.9,0.3
		C50.7,26.3,50.9,26.6,51.2,26.8z"/>
	<path class="st0" d="M54.4,28.3l1.5,0.7c0.3,0.2,0.7,0,0.9-0.3c0.2-0.3,0-0.7-0.3-0.9l-1.5-0.7c-0.3-0.2-0.7,0-0.9,0.3
		C53.9,27.7,54,28.1,54.4,28.3z"/>
	<path class="st0" d="M57.5,29.7l1.5,0.7c0.3,0.2,0.7,0,0.9-0.3c0.2-0.3,0-0.7-0.3-0.9l-1.5-0.7c-0.3-0.2-0.7,0-0.9,0.3
		C57,29.2,57.2,29.6,57.5,29.7z"/>
	<path class="st0" d="M104.3,23.1c-2.1-5.5-6.2-9.9-11.6-12.4L73.5,2c-5.4-2.4-11.4-2.6-16.9-0.6C51,3.5,46.6,7.6,44.2,13
		c-0.9,2-1.5,4.1-1.8,6.2l0,0c-0.2,1.3-0.2,2.7-0.2,2.9l0,0v32.3l0,0c0,0,0,0,0,0.1c0,1.1,0.8,1.9,1.9,2v0.1l18,8.4l0,0
		c0.3,0.1,0.5,0.2,0.9,0.2c1,0,1.9-0.8,1.9-1.8l0,0V46.6l9.5,4.3c0,0,0.1,0,0.1,0.1c2.9,1.3,6,2,9.1,2c2.6,0,5.3-0.5,7.8-1.4
		c2.1-0.8,4-1.8,5.7-3.2c2.9-2.2,5.1-5,6.7-8.4C106.2,34.7,106.4,28.6,104.3,23.1z M47,23.4l-1.4-0.7c0-0.9,0-1.7,0.1-2.1
		c0,0,0,0,0,0c0.2-2.1,0.7-4.2,1.6-6.3c2.1-4.6,5.8-8,10.5-9.8c2.1-0.8,4.4-1.2,6.6-1.2c2.6,0,5.3,0.6,7.7,1.7L80.7,9
		c-7.3,1-14,5.6-17.2,12.8c-1,2.2-1.6,4.5-1.9,6.8l0,0c0,0.2-0.1,0.8-0.1,1.7l-0.3-0.2c-0.3-0.2-0.7,0-0.9,0.3
		c-0.2,0.3,0,0.7,0.3,0.9l0.8,0.4c0,0.2,0,0.5,0,0.7v9.1v3.7v16l-15.9-7.4V33.8v-9.1c0-0.2,0-0.3,0-0.5l0.9,0.4
		c0.3,0.2,0.7,0,0.9-0.3C47.5,24,47.3,23.6,47,23.4z M100.7,38.6c-1.3,2.8-3.2,5.3-5.6,7.1c-1.4,1.1-3.1,2-4.8,2.7
		c-4.7,1.8-9.8,1.6-14.3-0.5l-0.2-0.1c-9.3-4.3-13.4-15.4-9.2-24.7c3.1-6.9,10-11,17.1-11c2.6,0,5.2,0.5,7.7,1.7
		c4.6,2.1,8,5.8,9.8,10.5C102.9,29,102.7,34.1,100.7,38.6z"/>
</g>
</svg>
