<?xml version="1.0" encoding="utf-8"?>
<!-- Generator: Adobe Illustrator 19.1.0, SVG Export Plug-In . SVG Version: 6.00 Build 0)  -->
<svg version="1.1" id="Layer_1" xmlns="http://www.w3.org/2000/svg" xmlns:xlink="http://www.w3.org/1999/xlink" x="0px" y="0px"
	 viewBox="0 0 533.3 69.9" style="enable-background:new 0 0 533.3 69.9;" xml:space="preserve">
<style type="text/css">
	.st0{fill:#FFFFFF;}
</style>
<g>
	<path class="st0" d="M0,4.1h19c4.5,0,7.9,1.1,10.3,3.2c2.3,2.2,3.5,5.3,3.5,9.4c0,2.5-0.4,4.5-1.3,6.1s-2.2,3-4.1,4.1
		c1.8,0.3,3.4,0.9,4.6,1.6c1.3,0.7,2.3,1.6,3.1,2.6c0.8,1,1.4,2.2,1.7,3.5c0.3,1.3,0.5,2.7,0.5,4.2c0,2.3-0.4,4.3-1.2,6.1
		c-0.8,1.8-1.9,3.3-3.4,4.5c-1.5,1.2-3.2,2.1-5.3,2.7c-2.1,0.6-4.4,0.9-7,0.9H0V4.1z M12.7,23.4h2.3c4,0,6-1.6,6-4.7
		c0-3.2-2-4.7-6-4.7h-2.3V23.4z M12.7,43.3h2.8c3.2,0,5.5-0.4,6.9-1.2c1.4-0.8,2.1-2.1,2.1-4c0-1.8-0.7-3.1-2.1-4
		c-1.4-0.8-3.7-1.2-6.9-1.2h-2.8V43.3z"/>
	<path class="st0" d="M43.1,7c0-0.9,0.2-1.8,0.5-2.6C44,3.6,44.4,2.9,45,2.3c0.6-0.6,1.3-1.1,2.1-1.4c0.8-0.3,1.7-0.5,2.6-0.5
		s1.8,0.2,2.6,0.5c0.8,0.3,1.5,0.8,2.1,1.4c0.6,0.6,1.1,1.3,1.4,2.1c0.3,0.8,0.5,1.7,0.5,2.6c0,0.9-0.2,1.8-0.5,2.6
		c-0.3,0.8-0.8,1.5-1.4,2.1c-0.6,0.6-1.3,1.1-2.1,1.4c-0.8,0.3-1.7,0.5-2.6,0.5s-1.8-0.2-2.6-0.5c-0.8-0.3-1.5-0.8-2.1-1.4
		c-0.6-0.6-1.1-1.3-1.4-2.1C43.3,8.8,43.1,7.9,43.1,7z M55.6,19.8v33.3H43.9V19.8H55.6z"/>
	<path class="st0" d="M101,19.8v31.1c0,1.9-0.1,3.5-0.3,5c-0.2,1.5-0.5,2.8-0.9,3.9c-0.5,1.4-1.3,2.8-2.4,4c-1.1,1.2-2.4,2.3-4,3.2
		c-1.6,0.9-3.3,1.6-5.3,2.1c-2,0.5-4.1,0.8-6.4,0.8c-2.6,0-5-0.3-7.1-1c-2.2-0.6-4.1-1.5-5.7-2.7c-1.6-1.1-3-2.5-4-4
		c-1-1.5-1.7-3.2-2.1-5H76c0.8,2.2,2.7,3.3,5.6,3.3c2.5,0,4.4-0.7,5.7-2.1c1.3-1.4,2-3.3,2-5.8v-3.2c-0.9,0.8-1.7,1.5-2.5,2
		c-0.8,0.5-1.6,1-2.4,1.3c-0.8,0.3-1.7,0.6-2.6,0.7c-0.9,0.2-1.9,0.2-3,0.2c-2.4,0-4.6-0.4-6.6-1.2c-2-0.8-3.7-2-5.2-3.4
		c-1.5-1.5-2.6-3.2-3.4-5.3c-0.8-2.1-1.2-4.3-1.2-6.9c0-2.6,0.4-4.9,1.3-7.1c0.9-2.2,2-4.1,3.5-5.7s3.3-2.9,5.3-3.8
		c2.1-0.9,4.3-1.4,6.7-1.4c3.9,0,7.3,1.5,9.9,4.4v-3.5H101z M74.6,36.3c0,1.1,0.2,2.1,0.6,3c0.4,0.9,0.9,1.7,1.6,2.4
		c0.7,0.7,1.5,1.2,2.4,1.6s1.9,0.6,3,0.6c1,0,2-0.2,3-0.6c0.9-0.4,1.7-0.9,2.4-1.6c0.7-0.7,1.2-1.5,1.6-2.4c0.4-0.9,0.6-1.9,0.6-3
		c0-1.1-0.2-2.1-0.6-3c-0.4-0.9-1-1.7-1.7-2.4c-0.7-0.7-1.5-1.2-2.4-1.6s-1.9-0.6-2.9-0.6c-1,0-2,0.2-2.9,0.6
		c-0.9,0.4-1.7,1-2.4,1.6c-0.7,0.7-1.2,1.5-1.7,2.4C74.8,34.3,74.6,35.3,74.6,36.3z"/>
	<path class="st0" d="M375.3,4.1h18.9c3.3,0,6.5,0.7,9.4,2c2.9,1.3,5.5,3.1,7.7,5.4c2.2,2.2,3.9,4.8,5.2,7.8c1.3,3,1.9,6.1,1.9,9.3
		c0,3.2-0.6,6.3-1.9,9.3c-1.2,3-2.9,5.6-5.1,7.8c-2.2,2.3-4.7,4.1-7.7,5.4c-2.9,1.3-6.1,2-9.5,2h-18.9V4.1z M388,42.4h2.9
		c2.2,0,4.2-0.3,5.9-1c1.7-0.7,3.2-1.6,4.4-2.9c1.2-1.2,2.1-2.7,2.7-4.3c0.6-1.7,0.9-3.5,0.9-5.5c0-2-0.3-3.8-1-5.5
		c-0.6-1.7-1.6-3.1-2.8-4.4c-1.2-1.2-2.7-2.2-4.4-2.9c-1.7-0.7-3.7-1-5.9-1H388V42.4z"/>
	<path class="st0" d="M451,19.8h11.8v33.3H451v-3.7c-2.5,3.2-5.9,4.7-10.2,4.7c-2.4,0-4.7-0.4-6.7-1.3c-2-0.9-3.8-2.1-5.3-3.7
		c-1.5-1.6-2.7-3.5-3.5-5.7c-0.8-2.2-1.3-4.5-1.3-7.1c0-2.4,0.4-4.6,1.2-6.8s2-4,3.4-5.6c1.5-1.6,3.2-2.9,5.3-3.8
		c2-0.9,4.3-1.4,6.8-1.4c4.2,0,7.6,1.5,10.3,4.4V19.8z M436.2,36.4c0,1.1,0.2,2.1,0.6,3c0.4,0.9,0.9,1.7,1.6,2.4
		c0.7,0.7,1.5,1.2,2.4,1.6s1.9,0.6,3,0.6c1,0,2-0.2,3-0.6c0.9-0.4,1.7-0.9,2.4-1.6c0.7-0.7,1.2-1.5,1.6-2.4c0.4-0.9,0.6-1.9,0.6-2.9
		s-0.2-2-0.6-3c-0.4-0.9-1-1.7-1.6-2.4c-0.7-0.7-1.5-1.2-2.4-1.6c-0.9-0.4-1.9-0.6-3-0.6c-1.1,0-2.1,0.2-3,0.6
		c-0.9,0.4-1.7,0.9-2.4,1.6c-0.7,0.7-1.2,1.5-1.6,2.4C436.4,34.4,436.2,35.3,436.2,36.4z"/>
	<path class="st0" d="M484,29.6v23.5h-11.8V29.6h-3.9v-9.8h3.9v-10H484v10h6.7v9.8H484z"/>
	<path class="st0" d="M521.5,19.8h11.8v33.3h-11.8v-3.7c-2.5,3.2-5.9,4.7-10.2,4.7c-2.4,0-4.7-0.4-6.7-1.3c-2-0.9-3.8-2.1-5.3-3.7
		c-1.5-1.6-2.7-3.5-3.5-5.7c-0.8-2.2-1.3-4.5-1.3-7.1c0-2.4,0.4-4.6,1.2-6.8s2-4,3.4-5.6c1.5-1.6,3.2-2.9,5.3-3.8
		c2-0.9,4.3-1.4,6.8-1.4c4.2,0,7.6,1.5,10.3,4.4V19.8z M506.7,36.4c0,1.1,0.2,2.1,0.6,3c0.4,0.9,0.9,1.7,1.6,2.4
		c0.7,0.7,1.5,1.2,2.4,1.6s1.9,0.6,3,0.6c1,0,2-0.2,3-0.6c0.9-0.4,1.7-0.9,2.4-1.6c0.7-0.7,1.2-1.5,1.6-2.4c0.4-0.9,0.6-1.9,0.6-2.9
		s-0.2-2-0.6-3c-0.4-0.9-1-1.7-1.6-2.4c-0.7-0.7-1.5-1.2-2.4-1.6c-0.9-0.4-1.9-0.6-3-0.6c-1.1,0-2.1,0.2-3,0.6
		c-0.9,0.4-1.7,0.9-2.4,1.6c-0.7,0.7-1.2,1.5-1.6,2.4C506.9,34.4,506.7,35.3,506.7,36.4z"/>
</g>
<path class="st0" d="M225.2,25.9c-3.7,0-6.8,3-6.8,6.8s3,6.8,6.8,6.8s6.8-3,6.8-6.8S228.9,25.9,225.2,25.9z"/>
<path class="st0" d="M234.4,12.4c-3-1.4-6.1-2-9.2-2c-8.5,0-16.6,4.9-20.3,13.1c-5.1,11.1-0.2,24.3,10.9,29.4L216,53
	c5.4,2.5,11.5,2.7,17.1,0.6c3.3-1.3,6.3-3.3,8.6-5.8c1.6-1.7,2.9-3.7,3.9-5.8c2.5-5.4,2.7-11.5,0.6-17.1
	C244,19.3,239.8,14.9,234.4,12.4z M225.2,43.5c-5.9,0-10.8-4.8-10.8-10.8c0-5.9,4.8-10.8,10.8-10.8S236,26.8,236,32.7
	C236,38.7,231.1,43.5,225.2,43.5z"/>
<path class="st0" d="M253,32.3c-0.4-0.2-0.6-0.7-0.4-1s0.7-0.5,1.1-0.3l0.7,0.4c0.2-3.2,0.9-6.4,2.3-9.4c2.9-6.4,8.1-11.3,14.7-13.7
	c1.9-0.7,3.8-1.2,5.8-1.4L267,2c-2.9-1.3-6.1-2-9.2-2c-2.6,0-5.3,0.5-7.8,1.4c-4.6,1.7-8.4,4.9-11,8.9c5,3,8.8,7.6,10.8,13.1
	c0.8,2,1.3,4.1,1.5,6.3l0.5,0.2c0.4,0.2,0.6,0.7,0.4,1c-0.1,0.3-0.4,0.4-0.7,0.4c0.2,3.9-0.5,7.9-2.1,11.6l9.4,4.3
	c-2.8-4.2-4.3-9.2-4.4-14.3L253,32.3z"/>
<path class="st0" d="M197.5,32.3c-0.4-0.2-0.6-0.7-0.4-1s0.7-0.5,1.1-0.3l0.7,0.4c0.2-3.2,0.9-6.4,2.3-9.4
	c2.9-6.4,8.1-11.3,14.7-13.7c1.9-0.7,3.8-1.2,5.8-1.4L211.5,2c-2.9-1.3-6.1-2-9.2-2c-2.6,0-5.3,0.5-7.8,1.4
	c-4.6,1.7-8.3,4.8-10.9,8.8c5,3,8.8,7.6,10.9,13.1c0.8,2.1,1.3,4.2,1.5,6.4l0.4,0.2c0.4,0.2,0.6,0.7,0.4,1c-0.1,0.2-0.4,0.4-0.6,0.4
	c0.2,3.9-0.5,7.9-2.1,11.6l9.4,4.3c-2.8-4.2-4.3-9.2-4.4-14.3L197.5,32.3z"/>
<path class="st0" d="M280.7,25.9c-3.7,0-6.8,3-6.8,6.8s3,6.8,6.8,6.8s6.8-3,6.8-6.8S284.4,25.9,280.7,25.9z"/>
<path class="st0" d="M169.7,25.9c-3.7,0-6.8,3-6.8,6.8s3,6.8,6.8,6.8s6.8-3,6.8-6.8S173.5,25.9,169.7,25.9z"/>
<path class="st0" d="M166.3,6.6L156,1.9c-2.9-1.3-6.1-2-9.2-2c-2.6,0-5.3,0.5-7.8,1.4c-5.6,2.1-10,6.2-12.5,11.7
	c-1.1,2.4-1.7,4.9-1.9,7.5c0,0,0,0,0,0c-0.1,0.5-0.1,1.5-0.1,2.5l1.7,0.8c0.4,0.2,0.6,0.7,0.4,1c-0.2,0.4-0.7,0.5-1.1,0.4l-1-0.5
	c0,0.2,0,0.4,0,0.6v10.9v23.6l18.9,8.9v-19v-4.4V34.3c0-0.3,0-0.6,0-0.8l-1-0.5c-0.4-0.2-0.6-0.7-0.4-1c0.2-0.4,0.7-0.5,1.1-0.4
	l0.4,0.2c0-1.1,0.1-1.8,0.1-2l0,0c0.3-2.7,1-5.5,2.2-8.1C149.7,13.2,157.6,7.8,166.3,6.6z M130.3,26.5c-0.2,0.4-0.7,0.5-1.1,0.4
	l-1.8-0.8c-0.4-0.2-0.6-0.7-0.4-1c0.2-0.4,0.7-0.5,1.1-0.4l1.8,0.8C130.3,25.7,130.5,26.1,130.3,26.5z M134.1,28.3
	c-0.2,0.4-0.7,0.5-1.1,0.4l-1.8-0.8c-0.4-0.2-0.6-0.7-0.4-1c0.2-0.4,0.7-0.5,1.1-0.4l1.8,0.8C134.1,27.4,134.2,27.9,134.1,28.3z
	 M137.8,30c-0.2,0.4-0.7,0.5-1.1,0.4l-1.8-0.8c-0.4-0.2-0.6-0.7-0.4-1c0.2-0.4,0.7-0.5,1.1-0.4l1.8,0.8
	C137.8,29.2,138,29.7,137.8,30z M141.5,31.8c-0.2,0.4-0.7,0.5-1.1,0.4l-1.8-0.8c-0.4-0.2-0.6-0.7-0.4-1c0.2-0.4,0.7-0.5,1.1-0.4
	l1.8,0.8C141.5,30.9,141.7,31.4,141.5,31.8z"/>
<path class="st0" d="M179,12.3c-3-1.4-6.1-2-9.2-2c-8.5,0-16.6,4.9-20.3,13.1c-5.1,11.1-0.2,24.3,10.9,29.4l0.2,0.1
	c5.4,2.5,11.5,2.7,17.1,0.6c2.1-0.8,4-1.9,5.7-3.2c2.9-2.2,5.2-5.1,6.7-8.5c2.5-5.4,2.7-11.5,0.6-17.1
	C188.5,19.2,184.4,14.8,179,12.3z M169.7,43.4c-5.9,0-10.8-4.8-10.8-10.8c0-5.9,4.8-10.8,10.8-10.8s10.8,4.8,10.8,10.8
	C180.5,38.6,175.7,43.4,169.7,43.4z"/>
<path class="st0" d="M332.6,6.6l-10.3-4.7c-2.9-1.3-6.1-2-9.2-2c-2.6,0-5.3,0.5-7.8,1.4c-4.6,1.7-8.4,4.8-10.9,8.9
	c5,3,8.9,7.6,11,13.2c0.9,2.3,1.4,4.6,1.6,7l0.5,0.2c0.4,0.2,0.6,0.7,0.4,1c-0.1,0.3-0.5,0.5-0.8,0.4c0.1,3.9-0.7,7.8-2.4,11.4
	c-1.1,2.4-2.5,4.6-4.2,6.5c-2.6,3-5.9,5.3-9.7,6.9v2.7l18.9,8.9v-19v-4.4V34.3c0-0.3,0-0.6,0-0.8l-1-0.5c-0.4-0.2-0.6-0.7-0.4-1
	c0.2-0.4,0.7-0.5,1.1-0.4l0.4,0.2c0-1.1,0.1-1.8,0.1-2l0,0c0.3-2.7,1-5.5,2.2-8.1C316,13.2,323.9,7.8,332.6,6.6z"/>
<path class="st0" d="M345.2,12.3c-3-1.4-6.1-2-9.2-2c-8.5,0-16.6,4.9-20.3,13.1c-5.1,11.1-0.2,24.3,10.9,29.4l0.2,0.1
	c5.4,2.5,11.5,2.7,17.1,0.6c2.1-0.8,4-1.9,5.7-3.2c2.9-2.2,5.2-5.1,6.7-8.5c2.5-5.4,2.7-11.5,0.6-17.1
	C354.8,19.2,350.7,14.8,345.2,12.3z M336,43.4c-5.9,0-10.8-4.8-10.8-10.8c0-5.9,4.8-10.8,10.8-10.8s10.8,4.8,10.8,10.8
	C346.8,38.6,342,43.4,336,43.4z"/>
<path class="st0" d="M336,25.9c-3.7,0-6.8,3-6.8,6.8s3,6.8,6.8,6.8s6.8-3,6.8-6.8S339.8,25.9,336,25.9z"/>
<path class="st0" d="M297.2,47.8c1.6-1.7,2.9-3.7,3.9-5.8c2.5-5.4,2.7-11.5,0.6-17.1c-2.1-5.6-6.2-10-11.7-12.5c-3-1.4-6.1-2-9.2-2
	c-8.5,0-16.6,4.9-20.3,13.1c-5.1,11.1-0.2,24.3,10.9,29.4l0.2,0.1c5.4,2.5,11.5,2.7,17.1,0.6C291.9,52.4,294.8,50.3,297.2,47.8z
	 M280.7,43.5c-5.9,0-10.8-4.8-10.8-10.8c0-5.9,4.8-10.8,10.8-10.8s10.8,4.8,10.8,10.8C291.5,38.7,286.6,43.5,280.7,43.5z"/>
</svg>
