<?xml version="1.0" encoding="utf-8"?>
<!-- Generator: Adobe Illustrator 21.0.1, SVG Export Plug-In . SVG Version: 6.00 Build 0)  -->
<svg version="1.1" id="Layer_1" xmlns="http://www.w3.org/2000/svg" xmlns:xlink="http://www.w3.org/1999/xlink" x="0px" y="0px"
	 viewBox="0 0 94 97.4" style="enable-background:new 0 0 94 97.4;" xml:space="preserve">
<style type="text/css">
	.st0{fill:#FFFFFF;stroke:#000000;stroke-width:4;stroke-miterlimit:10;}
</style>
<path d="M59.1,50"/>
<g>
	<g>
		<g>
			<g>
				<path d="M62.5,53.9L61,53.1c-0.2-0.1-0.4-0.5-0.2-0.7c0.1-0.2,0.5-0.4,0.7-0.2l1.6,0.7c0.2,0.1,0.4,0.5,0.2,0.7
					C63.1,54,62.9,54.1,62.5,53.9z"/>
			</g>
			<g>
				<path d="M65.6,55.3L64,54.6c-0.2-0.1-0.4-0.5-0.2-0.7c0.1-0.2,0.5-0.4,0.7-0.2l1.6,0.7c0.2,0.1,0.4,0.5,0.2,0.7
					C66.2,55.3,65.9,55.4,65.6,55.3z"/>
			</g>
			<g>
				<path d="M68.6,56.8L67,56c-0.2-0.1-0.4-0.5-0.2-0.7s0.5-0.4,0.7-0.2l1.6,0.7c0.2,0.1,0.4,0.5,0.2,0.7
					C69.3,56.8,68.9,56.9,68.6,56.8z"/>
			</g>
			<g>
				<path d="M71.7,58.2l-1.6-0.7c-0.2-0.1-0.4-0.5-0.2-0.7c0.1-0.2,0.5-0.4,0.7-0.2l1.6,0.7c0.2,0.1,0.4,0.5,0.2,0.7
					C72.3,58.2,72,58.3,71.7,58.2z"/>
			</g>
			<g>
				<path d="M74.8,59.6l-1.6-0.7c-0.2-0.1-0.4-0.5-0.2-0.7c0.1-0.2,0.5-0.4,0.7-0.2l1.6,0.7c0.2,0.1,0.4,0.5,0.2,0.7
					C75.4,59.7,75,59.8,74.8,59.6z"/>
			</g>
			<g>
				<path d="M77.8,61l-1.6-0.7c-0.2-0.1-0.4-0.5-0.2-0.7c0.1-0.2,0.5-0.4,0.7-0.2l1.6,0.7c0.2,0.1,0.4,0.5,0.2,0.7
					C78.4,61,78,61.1,77.8,61z"/>
			</g>
			<g>
				<path d="M80.8,62.5l-1.6-0.7C79,61.6,78.9,61.3,79,61c0.1-0.2,0.5-0.4,0.7-0.2l1.6,0.7c0.2,0.1,0.4,0.5,0.2,0.7
					S81.1,62.6,80.8,62.5z"/>
			</g>
			<g>
				<path d="M83.8,63.9l-1.6-0.7c-0.2-0.1-0.4-0.5-0.2-0.7c0.1-0.2,0.5-0.4,0.7-0.2l1.6,0.6c0.2,0.1,0.4,0.5,0.2,0.7
					C84.4,63.9,84.1,64,83.8,63.9z"/>
			</g>
			<g>
				<path d="M86.9,65.2l-1.6-0.7C85,64.4,84.9,64,85,63.8c0.1-0.2,0.5-0.4,0.7-0.2l1.6,0.7c0.2,0.1,0.4,0.5,0.2,0.7
					C87.5,65.4,87.2,65.5,86.9,65.2z"/>
			</g>
		</g>
	</g>
</g>
<path class="st0" d="M87.5,54.2L87.5,54.2c-6.8,14.8-24.2,21.3-39,14.6L20.8,56.3C6,49.5-0.5,32.1,6.1,17.3l0,0
	C12.8,2.5,30.3-4,45.1,2.7l27.7,12.6C87.6,22,94.1,39.5,87.5,54.2z"/>
<path class="st0" d="M87.5,54.2L87.5,54.2c-6.8,14.8-24.2,21.3-39,14.6l0,0c-14.8-6.8-21.3-24.2-14.6-39l0,0
	c6.8-14.8,24.2-21.3,39-14.6l0,0C87.6,22,94.1,39.5,87.5,54.2z"/>
<polygon class="st0" points="31.3,89.3 3.4,76.4 3.4,28.9 31.3,42.5 "/>
<circle cx="31.3" cy="89.3" r="1.2"/>
</svg>
