<?xml version="1.0" encoding="utf-8"?>
<!-- Generator: Adobe Illustrator 19.1.0, SVG Export Plug-In . SVG Version: 6.00 Build 0)  -->
<svg version="1.1" id="Layer_1" xmlns="http://www.w3.org/2000/svg" xmlns:xlink="http://www.w3.org/1999/xlink" x="0px" y="0px"
	 viewBox="-48 386.4 498.6 69.5" style="enable-background:new -48 386.4 498.6 69.5;" xml:space="preserve">
<style type="text/css">
	.st0{fill:#FFFFFF;}
	.st1{fill:none;stroke:#FFFFFF;stroke-width:2;stroke-miterlimit:10;}
	.st2{fill:none;stroke:#FFFFFF;stroke-miterlimit:10;}
</style>
<g id="Layer_2">
</g>
<g>
	<path d="M262.7,293.2"/>
</g>
<g>
	<path d="M96.4,293.2"/>
</g>
<path class="st0" d="M257.5,441.1c-3.2,0-6.4-0.7-9.4-2c-11.4-5.2-16.4-18.6-11.3-30c2.5-5.5,7-9.7,12.7-11.8s11.8-1.9,17.3,0.6
	s9.7,7,11.8,12.7c2.1,5.7,1.9,11.8-0.6,17.3s-7,9.7-12.7,11.8C262.9,440.6,260.2,441.1,257.5,441.1z M257.5,397.5
	c-2.5,0-5,0.4-7.3,1.3c-5.2,2-9.4,5.8-11.7,10.9c-4.8,10.5-0.1,22.9,10.4,27.6c5.1,2.3,10.7,2.5,16,0.5c5.2-2,9.4-5.8,11.7-10.9l0,0
	c2.3-5.1,2.5-10.7,0.5-16c-2-5.2-5.8-9.4-10.9-11.7C263.4,398.2,260.5,397.5,257.5,397.5z"/>
<g>
	<path class="st0" d="M236.8,453.4"/>
</g>
<path class="st0" d="M214.4,407.1"/>
<circle class="st1" cx="257.5" cy="418.4" r="7.9"/>
<g>
	<path class="st0" d="M232.3,416.8l-1.3-0.6c-0.2-0.1-0.3-0.4-0.2-0.6c0.1-0.2,0.4-0.3,0.6-0.2l1.3,0.6c0.2,0.1,0.3,0.4,0.2,0.6
		C232.8,416.8,232.5,416.9,232.3,416.8z"/>
</g>
<g>
	<path class="st0" d="M234.8,418l-1.3-0.6c-0.2-0.1-0.3-0.4-0.2-0.6c0.1-0.2,0.4-0.3,0.6-0.2l1.3,0.6c0.2,0.1,0.3,0.4,0.2,0.6
		C235.3,418,235.1,418.1,234.8,418z"/>
</g>
<path class="st0" d="M-48,390.2h19c4.5,0,7.9,1.1,10.3,3.2c2.3,2.2,3.5,5.3,3.5,9.4c0,2.5-0.4,4.5-1.3,6.1c-0.9,1.6-2.2,3-4.1,4.1
	c1.8,0.3,3.4,0.9,4.6,1.6c1.3,0.7,2.3,1.6,3.1,2.6s1.4,2.2,1.7,3.5s0.5,2.7,0.5,4.2c0,2.3-0.4,4.3-1.2,6.1c-0.8,1.8-1.9,3.3-3.4,4.5
	c-1.5,1.2-3.2,2.1-5.3,2.7s-4.4,0.9-7,0.9H-48V390.2z M-35.3,409.4h2.3c4,0,6-1.6,6-4.7c0-3.2-2-4.7-6-4.7h-2.3V409.4z M-35.3,429.3
	h2.8c3.2,0,5.5-0.4,6.9-1.2c1.4-0.8,2.1-2.1,2.1-4c0-1.8-0.7-3.1-2.1-4c-1.4-0.8-3.7-1.2-6.9-1.2h-2.8V429.3z"/>
<path class="st0" d="M-4.9,393c0-0.9,0.2-1.8,0.5-2.6c0.4-0.7,0.8-1.4,1.4-2.1c0.6-0.6,1.3-1.1,2.1-1.4c0.9-0.3,1.7-0.5,2.6-0.5
	s1.8,0.2,2.6,0.5c0.8,0.3,1.5,0.8,2.1,1.4s1.1,1.3,1.4,2.1c0.3,0.8,0.5,1.7,0.5,2.6c0,0.9-0.2,1.8-0.5,2.6c-0.3,0.8-0.8,1.5-1.4,2.1
	c-0.6,0.6-1.3,1.1-2.1,1.4s-1.7,0.5-2.6,0.5s-1.8-0.2-2.6-0.5s-1.5-0.8-2.1-1.4s-1.1-1.3-1.4-2.1S-4.9,393.9-4.9,393z M7.6,405.8
	v33.3H-4.1v-33.3H7.6z"/>
<path class="st0" d="M53,405.8v31.1c0,1.9-0.1,3.5-0.3,5c-0.2,1.5-0.5,2.8-0.9,3.9c-0.5,1.4-1.3,2.8-2.4,4c-1.1,1.2-2.4,2.3-4,3.2
	c-1.6,0.9-3.3,1.6-5.3,2.1s-4.1,0.8-6.4,0.8c-2.6,0-5-0.3-7.1-1c-2.2-0.6-4.1-1.5-5.7-2.7c-1.6-1.1-3-2.5-4-4s-1.7-3.2-2.1-5H28
	c0.8,2.2,2.7,3.3,5.6,3.3c2.5,0,4.4-0.7,5.7-2.1c1.3-1.4,2-3.3,2-5.8v-3.2c-0.9,0.8-1.7,1.5-2.5,2s-1.6,1-2.4,1.3s-1.7,0.6-2.6,0.7
	c-0.9,0.2-1.9,0.2-3,0.2c-2.4,0-4.6-0.4-6.6-1.2c-2-0.8-3.7-2-5.2-3.4c-1.5-1.5-2.6-3.2-3.4-5.3c-0.8-2.1-1.2-4.3-1.2-6.9
	s0.4-4.9,1.3-7.1c0.9-2.2,2-4.1,3.5-5.7c1.5-1.6,3.3-2.9,5.3-3.8c2.1-0.9,4.3-1.4,6.7-1.4c3.9,0,7.3,1.5,9.9,4.4v-3.5H53V405.8z
	 M26.6,422.3c0,1.1,0.2,2.1,0.6,3s0.9,1.7,1.6,2.4s1.5,1.2,2.4,1.6s1.9,0.6,3,0.6c1,0,2-0.2,3-0.6c0.9-0.4,1.7-0.9,2.4-1.6
	c0.7-0.7,1.2-1.5,1.6-2.4s0.6-1.9,0.6-3s-0.2-2.1-0.6-3s-1-1.7-1.7-2.4c-0.7-0.7-1.5-1.2-2.4-1.6s-1.9-0.6-2.9-0.6s-2,0.2-2.9,0.6
	s-1.7,1-2.4,1.6c-0.7,0.7-1.2,1.5-1.7,2.4C26.8,420.3,26.6,421.3,26.6,422.3z"/>
<path class="st0" d="M292.6,390.2h18.9c3.3,0,6.5,0.7,9.4,2s5.5,3.1,7.7,5.4c2.2,2.2,3.9,4.8,5.2,7.8c1.3,3,1.9,6.1,1.9,9.3
	s-0.6,6.3-1.9,9.3c-1.2,3-2.9,5.6-5.1,7.8c-2.2,2.3-4.7,4.1-7.7,5.4c-2.9,1.3-6.1,2-9.5,2h-18.9V390.2z M305.3,428.4h2.9
	c2.2,0,4.2-0.3,5.9-1c1.7-0.7,3.2-1.6,4.4-2.9c1.2-1.2,2.1-2.7,2.7-4.3c0.6-1.7,0.9-3.5,0.9-5.5s-0.3-3.8-1-5.5
	c-0.6-1.7-1.6-3.1-2.8-4.4c-1.2-1.2-2.7-2.2-4.4-2.9c-1.7-0.7-3.7-1-5.9-1h-2.9v27.5H305.3z"/>
<path class="st0" d="M368.3,405.8h11.8v33.3h-11.8v-3.7c-2.5,3.2-5.9,4.7-10.2,4.7c-2.4,0-4.7-0.4-6.7-1.3c-2-0.9-3.8-2.1-5.3-3.7
	s-2.7-3.5-3.5-5.7c-0.8-2.2-1.3-4.5-1.3-7.1c0-2.4,0.4-4.6,1.2-6.8c0.8-2.2,2-4,3.4-5.6c1.5-1.6,3.2-2.9,5.3-3.8
	c2-0.9,4.3-1.4,6.8-1.4c4.2,0,7.6,1.5,10.3,4.4L368.3,405.8L368.3,405.8z M353.5,422.4c0,1.1,0.2,2.1,0.6,3c0.4,0.9,0.9,1.7,1.6,2.4
	c0.7,0.7,1.5,1.2,2.4,1.6c0.9,0.4,1.9,0.6,3,0.6c1,0,2-0.2,3-0.6c0.9-0.4,1.7-0.9,2.4-1.6c0.7-0.7,1.2-1.5,1.6-2.4
	c0.4-0.9,0.6-1.9,0.6-2.9s-0.2-2-0.6-3c-0.4-0.9-1-1.7-1.6-2.4c-0.7-0.7-1.5-1.2-2.4-1.6s-1.9-0.6-3-0.6s-2.1,0.2-3,0.6
	s-1.7,0.9-2.4,1.6c-0.7,0.7-1.2,1.5-1.6,2.4C353.7,420.4,353.5,421.4,353.5,422.4z"/>
<path class="st0" d="M401.3,415.6v23.5h-11.8v-23.5h-3.9v-9.8h3.9v-10h11.8v10h6.7v9.8H401.3z"/>
<path class="st0" d="M438.8,405.8h11.8v33.3h-11.8v-3.7c-2.5,3.2-5.9,4.7-10.2,4.7c-2.4,0-4.7-0.4-6.7-1.3c-2-0.9-3.8-2.1-5.3-3.7
	s-2.7-3.5-3.5-5.7c-0.8-2.2-1.3-4.5-1.3-7.1c0-2.4,0.4-4.6,1.2-6.8c0.8-2.2,2-4,3.4-5.6c1.5-1.6,3.2-2.9,5.3-3.8
	c2-0.9,4.3-1.4,6.8-1.4c4.2,0,7.6,1.5,10.3,4.4L438.8,405.8L438.8,405.8z M424,422.4c0,1.1,0.2,2.1,0.6,3c0.4,0.9,0.9,1.7,1.6,2.4
	c0.7,0.7,1.5,1.2,2.4,1.6c0.9,0.4,1.9,0.6,3,0.6c1,0,2-0.2,3-0.6c0.9-0.4,1.7-0.9,2.4-1.6c0.7-0.7,1.2-1.5,1.6-2.4
	c0.4-0.9,0.6-1.9,0.6-2.9s-0.2-2-0.6-3c-0.4-0.9-1-1.7-1.6-2.4c-0.7-0.7-1.5-1.2-2.4-1.6s-1.9-0.6-3-0.6s-2.1,0.2-3,0.6
	s-1.7,0.9-2.4,1.6c-0.7,0.7-1.2,1.5-1.6,2.4C424.2,420.4,424,421.4,424,422.4z"/>
<path class="st0" d="M207.9,441.1c-3.2,0-6.4-0.7-9.4-2c-11.4-5.2-16.4-18.6-11.3-30c2.5-5.5,7-9.7,12.7-11.8s11.8-1.9,17.3,0.6
	s9.7,7,11.8,12.7c2.1,5.7,1.9,11.8-0.6,17.3s-7,9.7-12.7,11.8C213.3,440.6,210.6,441.1,207.9,441.1z M207.9,397.5
	c-2.5,0-5,0.4-7.3,1.3c-5.2,2-9.4,5.8-11.7,10.9c-4.8,10.5-0.1,22.9,10.4,27.6c5.1,2.3,10.7,2.5,16,0.5c5.2-2,9.4-5.8,11.7-10.9l0,0
	c2.3-5.1,2.5-10.7,0.5-16c-2-5.2-5.8-9.4-10.9-11.7C213.8,398.2,210.8,397.5,207.9,397.5z"/>
<path class="st0" d="M164.8,407.1"/>
<circle class="st1" cx="207.9" cy="418.4" r="7.9"/>
<g>
	<path class="st0" d="M182.7,416.8l-1.3-0.6c-0.2-0.1-0.3-0.4-0.2-0.6s0.4-0.3,0.6-0.2l1.3,0.6c0.2,0.1,0.3,0.4,0.2,0.6
		S182.9,416.9,182.7,416.8z"/>
</g>
<g>
	<path class="st0" d="M185.2,418l-1.3-0.6c-0.2-0.1-0.3-0.4-0.2-0.6c0.1-0.2,0.4-0.3,0.6-0.2l1.3,0.6c0.2,0.1,0.3,0.4,0.2,0.6
		C185.7,418,185.4,418.1,185.2,418z"/>
</g>
<path class="st0" d="M158.2,441.1c-3.2,0-6.4-0.7-9.4-2c-11.4-5.2-16.4-18.6-11.3-30c2.5-5.5,7-9.7,12.7-11.8s11.8-1.9,17.3,0.6
	s9.7,7,11.8,12.7c2.1,5.7,1.9,11.8-0.6,17.3s-7,9.7-12.7,11.8C163.6,440.6,160.9,441.1,158.2,441.1z M158.3,397.5
	c-2.5,0-5,0.4-7.3,1.3c-5.2,2-9.4,5.8-11.7,10.9c-4.8,10.5-0.1,22.9,10.4,27.6c5.1,2.3,10.7,2.5,16,0.5c5.2-2,9.4-5.8,11.7-10.9l0,0
	c2.3-5.1,2.5-10.7,0.5-16c-2-5.2-5.8-9.4-10.9-11.7C164.1,398.2,161.2,397.5,158.3,397.5z"/>
<path class="st0" d="M115.1,407.1"/>
<circle class="st1" cx="158.3" cy="418.4" r="7.9"/>
<g>
	<path class="st0" d="M133,416.8l-1.3-0.6c-0.2-0.1-0.3-0.4-0.2-0.6s0.4-0.3,0.6-0.2l1.3,0.6c0.2,0.1,0.3,0.4,0.2,0.6
		S133.3,416.9,133,416.8z"/>
</g>
<g>
	<path class="st0" d="M135.5,418l-1.3-0.6c-0.2-0.1-0.3-0.4-0.2-0.6c0.1-0.2,0.4-0.3,0.6-0.2l1.3,0.6c0.2,0.1,0.3,0.4,0.2,0.6
		C136,418,135.8,418.1,135.5,418z"/>
</g>
<path class="st0" d="M108.6,441.1c-3.2,0-6.4-0.7-9.4-2c-11.4-5.2-16.4-18.6-11.3-30c2.5-5.5,7-9.7,12.7-11.8s11.8-1.9,17.3,0.6
	s9.7,7,11.8,12.7c2.1,5.7,1.9,11.8-0.6,17.3s-7,9.7-12.7,11.8C114,440.6,111.3,441.1,108.6,441.1z M108.6,397.5
	c-2.5,0-5,0.4-7.3,1.3c-5.2,2-9.4,5.8-11.7,10.9c-4.8,10.5-0.1,22.9,10.4,27.6c5.1,2.3,10.7,2.5,16,0.5c5.2-2,9.4-5.8,11.7-10.9l0,0
	c2.3-5.1,2.5-10.7,0.5-16c-2-5.2-5.8-9.4-10.9-11.7C114.5,398.2,111.6,397.5,108.6,397.5z"/>
<path class="st0" d="M117.9,397.9l-20.5-9.3c-5.5-2.5-11.6-2.7-17.3-0.6c-5.7,2.1-10.2,6.3-12.7,11.8c-2.3,5.1-2.5,10.6-1.1,15.6
	v-6.7l0.9,0.5c0-2.9,0.6-5.9,1.9-8.8c2.3-5.1,6.5-8.9,11.7-10.9c2.3-0.9,4.8-1.3,7.3-1.3c2.9,0,5.8,0.6,8.7,1.9l20.5,9.3
	c10.5,4.7,15.2,17.1,10.4,27.6c-2.3,5.1-6.5,8.9-11.7,10.9c-5.3,2-10.9,1.8-16-0.5l-13.1-6v2.1l12.3,5.6c3,1.3,6.2,2,9.4,2
	c2.7,0,5.4-0.5,7.9-1.4c5.7-2.1,10.2-6.3,12.7-11.8C134.3,416.5,129.3,403.1,117.9,397.9z"/>
<g>
	<path class="st0" d="M87.9,453.4"/>
</g>
<path class="st0" d="M65.5,407.1"/>
<path class="st0" d="M86,417.3c0,0.6,0,1.6,0,2v32.6l-18.8-8.8v-32.7v-0.2l0,0c0-0.4,0-1.5,0-2l-1.7-0.9c0,0.6-0.1,1.4-0.1,1.7v34.8
	l0,0c0,0.4,0.2,0.7,0.6,0.8l20.5,9.6l0,0c0.1,0.1,0.3,0.1,0.4,0.1c0.5,0,0.9-0.4,0.9-0.9l0,0v-35.2L86,417.3z"/>
<circle class="st2" cx="108.6" cy="418.4" r="7.9"/>
<g>
	<g>
		<g>
			<g>
				<path class="st0" d="M68.2,409.7l-1.3-0.6c-0.2-0.1-0.3-0.4-0.2-0.6c0.1-0.2,0.4-0.3,0.6-0.2l1.3,0.6c0.2,0.1,0.3,0.4,0.2,0.6
					C68.7,409.7,68.4,409.8,68.2,409.7z"/>
			</g>
			<g>
				<path class="st0" d="M70.7,410.9l-1.3-0.6c-0.2-0.1-0.3-0.4-0.2-0.6s0.4-0.3,0.6-0.2l1.3,0.6c0.2,0.1,0.3,0.4,0.2,0.6
					C71.3,410.9,71,411,70.7,410.9z"/>
			</g>
			<g>
				<path class="st0" d="M73.3,412l-1.3-0.6c-0.2-0.1-0.3-0.4-0.2-0.6c0.1-0.2,0.4-0.3,0.6-0.2l1.3,0.6c0.2,0.1,0.3,0.4,0.2,0.6
					C73.8,412.1,73.5,412.2,73.3,412z"/>
			</g>
			<g>
				<path class="st0" d="M75.8,413.2l-1.3-0.6c-0.2-0.1-0.3-0.4-0.2-0.6c0.1-0.2,0.4-0.3,0.6-0.2l1.3,0.6c0.2,0.1,0.3,0.4,0.2,0.6
					C76.3,413.2,76,413.3,75.8,413.2z"/>
			</g>
			<g>
				<path class="st0" d="M78.3,414.4l-1.3-0.6c-0.2-0.1-0.3-0.4-0.2-0.6c0.1-0.2,0.4-0.3,0.6-0.2l1.3,0.6c0.2,0.1,0.3,0.4,0.2,0.6
					C78.8,414.4,78.6,414.5,78.3,414.4z"/>
			</g>
			<g>
				<path class="st0" d="M80.8,415.6l-1.3-0.6c-0.2-0.1-0.3-0.4-0.2-0.6c0.1-0.2,0.4-0.3,0.6-0.2l1.3,0.6c0.2,0.1,0.3,0.4,0.2,0.6
					C81.3,415.6,81.1,415.7,80.8,415.6z"/>
			</g>
			<g>
				<path class="st0" d="M83.4,416.8l-1.3-0.6c-0.2-0.1-0.3-0.4-0.2-0.6s0.4-0.3,0.6-0.2l1.3,0.6c0.2,0.1,0.3,0.4,0.2,0.6
					S83.6,416.9,83.4,416.8z"/>
			</g>
			<g>
				<path class="st0" d="M85.9,418l-1.3-0.6c-0.2-0.1-0.3-0.4-0.2-0.6c0.1-0.2,0.4-0.3,0.6-0.2l1.3,0.6c0.2,0.1,0.3,0.4,0.2,0.6
					C86.4,418,86.1,418.1,85.9,418z"/>
			</g>
		</g>
	</g>
</g>
<path class="st0" d="M-27.5,439.2"/>
<path class="st0" d="M167.6,397.9l-20.5-9.3c-5.5-2.5-11.6-2.7-17.3-0.6c-5.3,2-9.5,5.7-12.1,10.7l1.5,0.8c2.4-4.6,6.4-8.1,11.2-10
	c2.3-0.9,4.8-1.3,7.3-1.3c3,0,5.9,0.6,8.7,1.8l20.5,9.3c10.5,4.7,15.2,17.1,10.4,27.6c-2.3,5.1-6.5,8.9-11.7,10.9
	c-5.3,2-10.9,1.8-16-0.5l-20.5-9.3c-0.3-0.1-0.5-0.3-0.8-0.4c-0.3,0.7-0.6,1.2-0.9,1.7c0.3,0.2,0.6,0.3,1,0.5l20.5,9.3
	c3,1.3,6.2,2,9.4,2c2.6,0,5.3-0.5,7.9-1.4c5.7-2.1,10.2-6.3,12.7-11.8C184,416.5,179,403.1,167.6,397.9z"/>
<path class="st0" d="M217.2,397.8l-20.5-9.3c-5.5-2.5-11.6-2.7-17.3-0.6c-5.3,2-9.6,5.8-12.2,10.8l1.6,0.9
	c2.4-4.7,6.4-8.2,11.3-10.1c2.3-0.9,4.8-1.3,7.3-1.3c2.9,0,5.8,0.6,8.6,1.9l20.6,9.2c10.5,4.7,15.2,17.1,10.4,27.6
	c-2.3,5.1-6.5,8.9-11.7,10.9c-5.3,2-10.9,1.8-16-0.5l-20.5-9.3c-0.3-0.1-0.6-0.3-0.9-0.5c-0.3,0.7-0.5,1.2-0.9,1.7
	c0.3,0.2,0.7,0.3,1,0.5l20.5,9.4c3,1.3,6.2,2,9.4,2c2.7,0,5.4-0.5,7.9-1.5c5.7-2.1,10.2-6.3,12.7-11.8
	C233.6,416.4,228.6,403,217.2,397.8z"/>
<path class="st0" d="M266.8,397.9l-20.5-9.3c-5.5-2.5-11.6-2.7-17.3-0.6c-5.3,2-9.5,5.7-12.1,10.7l1.6,0.8c2.4-4.7,6.4-8.1,11.3-10
	c2.3-0.9,4.8-1.3,7.3-1.3c2.9,0,5.9,0.6,8.7,1.8l20.5,9.3c10.5,4.7,15.2,17.1,10.4,27.6c-2.3,5.1-6.5,8.9-11.7,10.9
	c-5.3,2-10.9,1.8-16-0.5l-13.1-5.9v2.2l12.3,5.6c3,1.3,6.2,2,9.4,2c2.7,0,5.4-0.5,7.9-1.4c5.7-2.1,10.2-6.3,12.7-11.8
	C283.2,416.5,278.2,403.1,266.8,397.9z"/>
<path class="st0" d="M130.9,414.8l-0.9-0.4c0,0.3,0,0.7,0,1l0.5,0.2c0.2,0.1,0.5,0,0.6-0.2C131.2,415.2,131.1,414.9,130.9,414.8z"/>
<path class="st0" d="M180.5,414.8l-0.8-0.4l0,1l0.4,0.2c0.3,0.1,0.5,0,0.6-0.2C180.8,415.2,180.7,414.9,180.5,414.8z"/>
<path class="st0" d="M234.8,417.3c0,0.6,0,1.6,0,2v32.6l-18.8-8.8v-4.4c-0.6,0.2-1.2,0.5-1.8,0.6v4.5c0,0.4,0.2,0.7,0.6,0.8
	l20.5,9.6c0.1,0.1,0.3,0.1,0.4,0.1c0.5,0,0.9-0.4,0.9-0.9v-35.2L234.8,417.3z"/>
<path class="st0" d="M230.2,414.8l-0.9-0.4l0.2,1.1l0.4,0.2c0.2,0.1,0.5,0,0.6-0.2C230.5,415.2,230.4,414.9,230.2,414.8z"/>
</svg>
