<?xml version="1.0" encoding="utf-8"?>
<!-- Generator: Adobe Illustrator 19.1.0, SVG Export Plug-In . SVG Version: 6.00 Build 0)  -->
<svg version="1.1" id="Layer_1" xmlns="http://www.w3.org/2000/svg" xmlns:xlink="http://www.w3.org/1999/xlink" x="0px" y="0px"
	 viewBox="0 0 533.3 77.6" style="enable-background:new 0 0 533.3 77.6;" xml:space="preserve">
<style type="text/css">
	.st0{fill:#FFFFFF;}
</style>
<g>
	<path class="st0" d="M312.9,75.8"/>
</g>
<g>
	<path class="st0" d="M169.7,26c-5.9,0-10.8,4.8-10.8,10.8c0,5.9,4.8,10.8,10.8,10.8s10.8-4.8,10.8-10.8
		C180.5,30.8,175.7,26,169.7,26z M169.7,43.5c-3.7,0-6.8-3-6.8-6.8s3-6.8,6.8-6.8s6.8,3,6.8,6.8S173.5,43.5,169.7,43.5z"/>
	<path class="st0" d="M127.5,30.1l1.8,0.8c0.4,0.2,0.9,0,1.1-0.4c0.2-0.4,0-0.8-0.4-1l-1.8-0.8c-0.4-0.2-0.9,0-1.1,0.4
		C126.9,29.5,127.1,29.9,127.5,30.1z"/>
	<path class="st0" d="M131.2,31.9l1.8,0.8c0.4,0.2,0.9,0,1.1-0.4c0.2-0.4,0-0.8-0.4-1l-1.8-0.8c-0.4-0.2-0.9,0-1.1,0.4
		C130.6,31.2,130.8,31.7,131.2,31.9z"/>
	<path class="st0" d="M135,33.6l1.8,0.8c0.4,0.2,0.9,0,1.1-0.4c0.2-0.4,0-0.8-0.4-1l-1.8-0.8c-0.4-0.2-0.9,0-1.1,0.4
		C134.4,33,134.6,33.4,135,33.6z"/>
	<path class="st0" d="M138.7,35.4l1.8,0.8c0.4,0.2,0.9,0,1.1-0.4c0.2-0.4,0-0.8-0.4-1l-1.8-0.8c-0.4-0.2-0.9,0-1.1,0.4
		C138.1,34.7,138.3,35.2,138.7,35.4z"/>
	<path class="st0" d="M336,26c-5.9,0-10.8,4.8-10.8,10.8c0,5.9,4.8,10.8,10.8,10.8s10.8-4.8,10.8-10.8C346.8,30.8,342,26,336,26z
		 M336,43.5c-3.7,0-6.8-3-6.8-6.8s3-6.8,6.8-6.8s6.8,3,6.8,6.8S339.8,43.5,336,43.5z"/>
	<path class="st0" d="M360.6,27.5c-2.5-6.6-7.3-11.8-13.7-14.7L324,2.4c-6.4-2.9-13.5-3.1-20.1-0.7c-5.5,2.1-10.1,5.9-13.1,10.8
		l-22.1-10c-6.4-2.9-13.5-3.1-20.1-0.7c-5.5,2.1-10.1,5.9-13.1,10.8L213.1,2.5c-6.4-2.9-13.5-3.1-20.1-0.7c-5.5,2.1-10,5.8-13,10.7
		L157.7,2.4c-6.4-2.9-13.5-3.1-20.1-0.7C131,4.2,125.8,9,122.9,15.4c-1.1,2.4-1.8,4.9-2.1,7.4l0,0c-0.2,1.6-0.2,3.2-0.2,3.5l0,0
		v38.5l0,0v0.1c0,1,0.7,1.9,1.6,2.3l0.6,0.3v0l0.4,0.2l0.2,0.1l0,0l20.8,9.7l0,0c0.3,0.2,0.6,0.3,1,0.3c1.2,0,2.2-1,2.3-2.2l0,0v-20
		l11.3,5.1c0.1,0,0.1,0.1,0.2,0.1c3.5,1.6,7.2,2.4,10.9,2.4c3.1,0,6.2-0.6,9.3-1.7c2.5-0.9,4.7-2.2,6.8-3.7c2.5-1.9,4.6-4.3,6.3-7
		l22.1,10c0.1,0,0.1,0.1,0.2,0.1c3.5,1.6,7.2,2.4,10.9,2.4c3.1,0,6.2-0.6,9.3-1.7c4.1-1.5,7.7-4,10.5-7.2c1-1.1,1.8-2.3,2.6-3.6
		l22.1,10c0.1,0,0.1,0.1,0.2,0.1c3.5,1.6,7.2,2.4,10.9,2.4c2,0,4.1-0.3,6.1-0.7v2.3l0,0v0.1c0,0.2,0,0.3,0,0.4c0,0,0,0.1,0,0.1
		c0,0.1,0.1,0.2,0.1,0.3c0,0.1,0,0.1,0.1,0.2c0,0.1,0.1,0.1,0.1,0.2c0,0.1,0.1,0.1,0.1,0.2c0.1,0.1,0.1,0.1,0.2,0.2
		c0.1,0.1,0.2,0.2,0.3,0.2c0,0,0.1,0.1,0.1,0.1c0.1,0.1,0.2,0.1,0.2,0.2c0,0,0.1,0,0.1,0c0.1,0,0.2,0.1,0.3,0.1l0,0l0.6,0.3v0
		l0.4,0.2l0.3,0.1l0,0l20.8,9.7l0,0c0,0,0,0,0,0c0.1,0.1,0.3,0.1,0.5,0.2c0,0,0,0,0,0c0.2,0,0.3,0.1,0.5,0.1c0.2,0,0.3,0,0.5,0
		c0.1,0,0.1,0,0.2-0.1c0.1,0,0.1,0,0.2-0.1c0.1,0,0.2-0.1,0.3-0.1c0,0,0.1,0,0.1-0.1c0.1-0.1,0.2-0.2,0.3-0.2c0,0,0,0,0,0
		c0.4-0.4,0.7-0.9,0.7-1.6c0,0,0,0,0,0l0,0v-20l11.3,5.1c0.1,0,0.1,0.1,0.2,0.1c3.5,1.6,7.2,2.4,10.9,2.4c3.1,0,6.2-0.6,9.3-1.7
		c2.5-0.9,4.7-2.2,6.8-3.7c3.4-2.6,6.1-6,7.9-10C362.9,41.2,363.1,34.1,360.6,27.5z M305.2,5.4c2.5-1,5.2-1.4,7.8-1.4
		c3.1,0,6.3,0.7,9.2,2l10.3,4.7c-8.7,1.2-16.6,6.6-20.5,15.2c-1.2,2.6-1.9,5.4-2.2,8.1l0,0c0,0.2-0.1,0.9-0.1,2l-0.4-0.2
		c-0.4-0.2-0.9,0-1.1,0.4c-0.2,0.4,0,0.8,0.4,1l1,0.5c0,0.3,0,0.5,0,0.8v10.8v4.4v19l-18.9-8.9v-2.7c3.8-1.6,7-3.9,9.7-6.9
		c1.7-1.9,3.1-4.1,4.2-6.5c1.7-3.6,2.4-7.5,2.4-11.4c0.3,0.1,0.7-0.1,0.8-0.4c0.2-0.4,0-0.8-0.4-1l-0.5-0.2c-0.2-2.4-0.7-4.7-1.6-7
		c-2.1-5.6-6-10.2-11-13.2C296.9,10.3,300.7,7.2,305.2,5.4z M260.4,27.6c3.7-8.2,11.9-13.1,20.3-13.1c3.1,0,6.2,0.6,9.2,2
		c5.4,2.5,9.6,6.9,11.7,12.5c2.1,5.6,1.9,11.6-0.6,17.1c-1,2.2-2.3,4.1-3.9,5.8c-2.3,2.6-5.3,4.6-8.6,5.8
		c-5.6,2.1-11.6,1.9-17.1-0.6l-0.2-0.1C260.2,51.9,255.3,38.7,260.4,27.6z M249.9,5.5c2.5-1,5.2-1.4,7.8-1.4c3.1,0,6.3,0.7,9.2,2
		l10.2,4.7c-1.9,0.3-3.9,0.7-5.8,1.4c-6.6,2.5-11.8,7.3-14.7,13.7c-1.4,3.1-2.1,6.3-2.3,9.4l-0.7-0.4c-0.4-0.2-0.9,0-1.1,0.3
		s0,0.8,0.4,1l1.4,0.7c0.1,5.1,1.6,10.1,4.4,14.3l-9.4-4.3c1.6-3.7,2.3-7.6,2.1-11.6c0.3,0,0.6-0.1,0.7-0.4c0.2-0.4,0-0.8-0.4-1
		l-0.5-0.2c-0.2-2.1-0.7-4.2-1.5-6.3c-2.1-5.5-5.9-10.1-10.8-13.1C241.5,10.4,245.3,7.2,249.9,5.5z M233,57.7
		c-5.6,2.1-11.6,1.9-17.1-0.6l-0.2-0.1c-11.1-5.1-16-18.3-10.9-29.4c3.7-8.2,11.9-13.1,20.3-13.1c3.1,0,6.2,0.6,9.2,2
		C239.8,19,244,23.4,246,29c2.1,5.6,1.9,11.6-0.6,17.1c-1,2.2-2.3,4.1-3.9,5.8C239.3,54.4,236.4,56.4,233,57.7z M194.4,5.5
		c2.5-1,5.2-1.4,7.8-1.4c3.1,0,6.3,0.7,9.2,2l10.2,4.7c-1.9,0.3-3.9,0.7-5.8,1.4c-6.6,2.5-11.8,7.3-14.7,13.7
		c-1.4,3.1-2.1,6.3-2.3,9.4l-0.7-0.4c-0.4-0.2-0.9,0-1.1,0.3s0,0.8,0.4,1l1.4,0.7c0.1,5.1,1.6,10.1,4.4,14.3l-9.4-4.3
		c1.6-3.7,2.3-7.7,2.1-11.6c0.3,0,0.5-0.2,0.6-0.4c0.2-0.4,0-0.8-0.4-1l-0.4-0.2c-0.2-2.2-0.7-4.3-1.5-6.4
		c-2.1-5.5-5.9-10.1-10.9-13.1C186.1,10.3,189.8,7.2,194.4,5.5z M126.2,27.8l-1.7-0.8c0-1,0-2,0.1-2.5c0,0,0,0,0,0
		c0.2-2.5,0.8-5,1.9-7.5c2.5-5.4,6.9-9.6,12.5-11.7c2.5-1,5.2-1.4,7.8-1.4c3.1,0,6.3,0.7,9.2,2l10.3,4.7
		c-8.7,1.2-16.6,6.6-20.5,15.2c-1.2,2.6-1.9,5.4-2.2,8.1l0,0c0,0.2-0.1,0.9-0.1,2l-0.4-0.2c-0.4-0.2-0.9,0-1.1,0.4
		c-0.2,0.4,0,0.8,0.4,1l1,0.5c0,0.3,0,0.5,0,0.8v10.8v4.4v19l-18.9-8.9V40.2V29.3c0-0.2,0-0.4,0-0.6l1,0.5c0.4,0.2,0.9,0,1.1-0.4
		C126.8,28.5,126.6,28,126.2,27.8z M183.3,54.4c-1.7,1.3-3.7,2.4-5.7,3.2c-5.6,2.1-11.6,1.9-17.1-0.6l-0.2-0.1
		c-11.1-5.1-16-18.3-10.9-29.4c3.7-8.2,11.9-13.1,20.3-13.1c3.1,0,6.2,0.6,9.2,2c5.4,2.5,9.6,6.9,11.7,12.5
		c2.1,5.6,1.9,11.6-0.6,17.1C188.5,49.3,186.2,52.2,183.3,54.4z M356.3,46c-1.5,3.4-3.8,6.3-6.7,8.5c-1.7,1.3-3.7,2.4-5.7,3.2
		c-5.6,2.1-11.6,1.9-17.1-0.6l-0.2-0.1c-11.1-5.1-16-18.3-10.9-29.4c3.7-8.2,11.9-13.1,20.3-13.1c3.1,0,6.2,0.6,9.2,2
		c5.4,2.5,9.6,6.9,11.7,12.5C359,34.5,358.8,40.5,356.3,46z"/>
	<path class="st0" d="M225.2,26c-5.9,0-10.8,4.8-10.8,10.8c0,5.9,4.8,10.8,10.8,10.8S236,42.8,236,36.8C236,30.9,231.1,26,225.2,26z
		 M225.2,43.6c-3.7,0-6.8-3-6.8-6.8s3-6.8,6.8-6.8s6.8,3,6.8,6.8S228.9,43.6,225.2,43.6z"/>
	<path class="st0" d="M280.7,47.6c5.9,0,10.8-4.8,10.8-10.8c0-5.9-4.8-10.8-10.8-10.8s-10.8,4.8-10.8,10.8
		C269.9,42.8,274.8,47.6,280.7,47.6z M280.7,30c3.7,0,6.8,3,6.8,6.8s-3,6.8-6.8,6.8s-6.8-3-6.8-6.8S277,30,280.7,30z"/>
</g>
<g>
	<path class="st0" d="M0,8.2h19c4.5,0,7.9,1.1,10.3,3.2c2.3,2.2,3.5,5.3,3.5,9.4c0,2.5-0.4,4.5-1.3,6.1s-2.2,3-4.1,4.1
		c1.8,0.3,3.4,0.9,4.6,1.6c1.3,0.7,2.3,1.6,3.1,2.6c0.8,1,1.4,2.2,1.7,3.5c0.3,1.3,0.5,2.7,0.5,4.2c0,2.3-0.4,4.3-1.2,6.1
		c-0.8,1.8-1.9,3.3-3.4,4.5c-1.5,1.2-3.2,2.1-5.3,2.7c-2.1,0.6-4.4,0.9-7,0.9H0V8.2z M12.7,27.5h2.3c4,0,6-1.6,6-4.7
		c0-3.2-2-4.7-6-4.7h-2.3V27.5z M12.7,47.4h2.8c3.2,0,5.5-0.4,6.9-1.2c1.4-0.8,2.1-2.1,2.1-4c0-1.8-0.7-3.1-2.1-4
		C21,37.4,18.7,37,15.5,37h-2.8V47.4z"/>
	<path class="st0" d="M43.1,11.1c0-0.9,0.2-1.8,0.5-2.6C44,7.7,44.4,7,45,6.4c0.6-0.6,1.3-1.1,2.1-1.4c0.8-0.3,1.7-0.5,2.6-0.5
		s1.8,0.2,2.6,0.5c0.8,0.3,1.5,0.8,2.1,1.4C55,7,55.5,7.7,55.8,8.5c0.3,0.8,0.5,1.7,0.5,2.6c0,0.9-0.2,1.8-0.5,2.6
		c-0.3,0.8-0.8,1.5-1.4,2.1c-0.6,0.6-1.3,1.1-2.1,1.4c-0.8,0.3-1.7,0.5-2.6,0.5s-1.8-0.2-2.6-0.5c-0.8-0.3-1.5-0.8-2.1-1.4
		c-0.6-0.6-1.1-1.3-1.4-2.1C43.3,12.9,43.1,12,43.1,11.1z M55.6,23.9v33.3H43.9V23.9H55.6z"/>
	<path class="st0" d="M101,23.9V55c0,1.9-0.1,3.5-0.3,5c-0.2,1.5-0.5,2.8-0.9,3.9c-0.5,1.4-1.3,2.8-2.4,4c-1.1,1.2-2.4,2.3-4,3.2
		C91.8,72,90,72.7,88,73.2c-2,0.5-4.1,0.8-6.4,0.8c-2.6,0-5-0.3-7.1-1c-2.2-0.6-4.1-1.5-5.7-2.7c-1.6-1.1-3-2.5-4-4
		c-1-1.5-1.7-3.2-2.1-5H76c0.8,2.2,2.7,3.3,5.6,3.3c2.5,0,4.4-0.7,5.7-2.1c1.3-1.4,2-3.3,2-5.8v-3.2c-0.9,0.8-1.7,1.5-2.5,2
		c-0.8,0.5-1.6,1-2.4,1.3c-0.8,0.3-1.7,0.6-2.6,0.7c-0.9,0.2-1.9,0.2-3,0.2c-2.4,0-4.6-0.4-6.6-1.2c-2-0.8-3.7-2-5.2-3.4
		c-1.5-1.5-2.6-3.2-3.4-5.3c-0.8-2.1-1.2-4.3-1.2-6.9c0-2.6,0.4-4.9,1.3-7.1c0.9-2.2,2-4.1,3.5-5.7s3.3-2.9,5.3-3.8
		c2.1-0.9,4.3-1.4,6.7-1.4c3.9,0,7.3,1.5,9.9,4.4v-3.5H101z M74.6,40.4c0,1.1,0.2,2.1,0.6,3c0.4,0.9,0.9,1.7,1.6,2.4
		c0.7,0.7,1.5,1.2,2.4,1.6s1.9,0.6,3,0.6c1,0,2-0.2,3-0.6c0.9-0.4,1.7-0.9,2.4-1.6c0.7-0.7,1.2-1.5,1.6-2.4c0.4-0.9,0.6-1.9,0.6-3
		c0-1.1-0.2-2.1-0.6-3c-0.4-0.9-1-1.7-1.7-2.4c-0.7-0.7-1.5-1.2-2.4-1.6s-1.9-0.6-2.9-0.6c-1,0-2,0.2-2.9,0.6
		c-0.9,0.4-1.7,1-2.4,1.6c-0.7,0.7-1.2,1.5-1.7,2.4C74.8,38.4,74.6,39.4,74.6,40.4z"/>
	<path class="st0" d="M375.3,8.2h18.9c3.3,0,6.5,0.7,9.4,2c2.9,1.3,5.5,3.1,7.7,5.4c2.2,2.2,3.9,4.8,5.2,7.8c1.3,3,1.9,6.1,1.9,9.3
		c0,3.2-0.6,6.3-1.9,9.3c-1.2,3-2.9,5.6-5.1,7.8c-2.2,2.3-4.7,4.1-7.7,5.4c-2.9,1.3-6.1,2-9.5,2h-18.9V8.2z M388,46.4h2.9
		c2.2,0,4.2-0.3,5.9-1c1.7-0.7,3.2-1.6,4.4-2.9c1.2-1.2,2.1-2.7,2.7-4.3c0.6-1.7,0.9-3.5,0.9-5.5c0-2-0.3-3.8-1-5.5
		c-0.6-1.7-1.6-3.1-2.8-4.4c-1.2-1.2-2.7-2.2-4.4-2.9c-1.7-0.7-3.7-1-5.9-1H388V46.4z"/>
	<path class="st0" d="M451,23.9h11.8v33.3H451v-3.7c-2.5,3.2-5.9,4.7-10.2,4.7c-2.4,0-4.7-0.4-6.7-1.3c-2-0.9-3.8-2.1-5.3-3.7
		c-1.5-1.6-2.7-3.5-3.5-5.7c-0.8-2.2-1.3-4.5-1.3-7.1c0-2.4,0.4-4.6,1.2-6.8s2-4,3.4-5.6c1.5-1.6,3.2-2.9,5.3-3.8
		c2-0.9,4.3-1.4,6.8-1.4c4.2,0,7.6,1.5,10.3,4.4V23.9z M436.2,40.5c0,1.1,0.2,2.1,0.6,3c0.4,0.9,0.9,1.7,1.6,2.4
		c0.7,0.7,1.5,1.2,2.4,1.6s1.9,0.6,3,0.6c1,0,2-0.2,3-0.6c0.9-0.4,1.7-0.9,2.4-1.6c0.7-0.7,1.2-1.5,1.6-2.4c0.4-0.9,0.6-1.9,0.6-2.9
		s-0.2-2-0.6-3c-0.4-0.9-1-1.7-1.6-2.4c-0.7-0.7-1.5-1.2-2.4-1.6c-0.9-0.4-1.9-0.6-3-0.6c-1.1,0-2.1,0.2-3,0.6
		c-0.9,0.4-1.7,0.9-2.4,1.6c-0.7,0.7-1.2,1.5-1.6,2.4C436.4,38.5,436.2,39.4,436.2,40.5z"/>
	<path class="st0" d="M484,33.7v23.5h-11.8V33.7h-3.9v-9.8h3.9v-10H484v10h6.7v9.8H484z"/>
	<path class="st0" d="M521.5,23.9h11.8v33.3h-11.8v-3.7c-2.5,3.2-5.9,4.7-10.2,4.7c-2.4,0-4.7-0.4-6.7-1.3c-2-0.9-3.8-2.1-5.3-3.7
		c-1.5-1.6-2.7-3.5-3.5-5.7c-0.8-2.2-1.3-4.5-1.3-7.1c0-2.4,0.4-4.6,1.2-6.8s2-4,3.4-5.6c1.5-1.6,3.2-2.9,5.3-3.8
		c2-0.9,4.3-1.4,6.8-1.4c4.2,0,7.6,1.5,10.3,4.4V23.9z M506.7,40.5c0,1.1,0.2,2.1,0.6,3c0.4,0.9,0.9,1.7,1.6,2.4
		c0.7,0.7,1.5,1.2,2.4,1.6s1.9,0.6,3,0.6c1,0,2-0.2,3-0.6c0.9-0.4,1.7-0.9,2.4-1.6c0.7-0.7,1.2-1.5,1.6-2.4c0.4-0.9,0.6-1.9,0.6-2.9
		s-0.2-2-0.6-3c-0.4-0.9-1-1.7-1.6-2.4c-0.7-0.7-1.5-1.2-2.4-1.6c-0.9-0.4-1.9-0.6-3-0.6c-1.1,0-2.1,0.2-3,0.6
		c-0.9,0.4-1.7,0.9-2.4,1.6c-0.7,0.7-1.2,1.5-1.6,2.4C506.9,38.5,506.7,39.4,506.7,40.5z"/>
</g>
</svg>
