<?xml version="1.0" encoding="utf-8"?>
<!-- Generator: Adobe Illustrator 19.1.0, SVG Export Plug-In . SVG Version: 6.00 Build 0)  -->
<svg version="1.1" id="Layer_1" xmlns="http://www.w3.org/2000/svg" xmlns:xlink="http://www.w3.org/1999/xlink" x="0px" y="0px"
	 viewBox="0 0 833.4 414.1" style="enable-background:new 0 0 833.4 414.1;" xml:space="preserve">
<style type="text/css">
	.st0{fill:url(#SVGID_1_);}
	.st1{fill:#151C33;}
	.st2{opacity:0.26;fill:url(#SVGID_2_);}
	.st3{opacity:0.25;fill:url(#SVGID_3_);}
	.st4{opacity:0.25;fill:url(#SVGID_4_);}
	.st5{opacity:0.25;fill:url(#SVGID_5_);}
	.st6{fill:#151C33;stroke:#151C33;stroke-width:14.1732;stroke-miterlimit:10;}
	.st7{opacity:0.25;fill:url(#SVGID_6_);}
	.st8{opacity:0.25;fill:url(#SVGID_7_);}
	.st9{opacity:0.25;fill:url(#SVGID_8_);}
	.st10{opacity:0.25;fill:url(#SVGID_9_);}
	.st11{fill:#F7BAC0;}
	.st12{fill:#E70C4F;}
</style>
<linearGradient id="SVGID_1_" gradientUnits="userSpaceOnUse" x1="194.9924" y1="238.3575" x2="194.9924" y2="408.9241">
	<stop  offset="0" style="stop-color:#151C33"/>
	<stop  offset="0.6499" style="stop-color:#141B31;stop-opacity:0.3501"/>
	<stop  offset="0.8838" style="stop-color:#12182A;stop-opacity:0.1162"/>
	<stop  offset="1" style="stop-color:#101423;stop-opacity:0"/>
</linearGradient>
<path class="st0" d="M100.4,229c-6.6-9.6-17.6-15.8-30.1-15.8c-20.2,0-36.7,16.4-36.7,36.7s16.4,36.7,36.7,36.7
	c3.7,0,7.3-0.6,10.6-1.6v129.2h275.5V229H100.4z"/>
<path class="st1" d="M344,26.2C330,10.9,310.4,0,284.6,0c-32.5,0-53.4,15.3-65.9,15.3C206.1,15.3,185.2,0,152.7,0
	C92.6,0,65.9,59.5,65.9,95s0,71.1,0,71.1h149.3h6.8h149.3c0,0,0-35.5,0-71.1C371.4,74.7,362.7,46.6,344,26.2z"/>
<path class="st1" d="M443.3,225.3L443.3,225.3C443.3,225.3,443.3,225.3,443.3,225.3c-1.1-6.7-3.8-13.6-8.6-19.4c0,0,0,0,0,0
	c-0.4-0.4-0.7-0.9-1.1-1.3c0,0-0.1-0.1-0.1-0.1c-0.4-0.4-0.7-0.8-1.1-1.2c0,0-0.1-0.1-0.2-0.1c-0.4-0.4-0.8-0.7-1.1-1.1
	c-0.1-0.1-0.2-0.1-0.2-0.2c-0.4-0.3-0.8-0.7-1.2-1c-0.1-0.1-0.2-0.2-0.3-0.2c-0.4-0.3-0.8-0.6-1.2-0.9c-0.1-0.1-0.3-0.2-0.4-0.3
	c-0.4-0.3-0.8-0.5-1.2-0.8c-0.1-0.1-0.3-0.2-0.5-0.3c-0.4-0.2-0.8-0.5-1.2-0.7c-0.2-0.1-0.4-0.2-0.6-0.3c-0.4-0.2-0.8-0.4-1.2-0.6
	c-0.2-0.1-0.4-0.2-0.7-0.3c-0.4-0.2-0.8-0.4-1.2-0.6c-0.2-0.1-0.5-0.2-0.8-0.3c-0.4-0.2-0.8-0.3-1.2-0.5c-0.3-0.1-0.6-0.2-0.8-0.3
	c-0.4-0.1-0.8-0.3-1.2-0.4c-0.3-0.1-0.6-0.2-0.9-0.3c-0.4-0.1-0.8-0.3-1.2-0.4c-0.3-0.1-0.7-0.2-1-0.3c-0.4-0.1-0.8-0.2-1.2-0.3
	c-0.4-0.1-0.8-0.2-1.2-0.3c-0.4-0.1-0.8-0.2-1.2-0.3c-0.4-0.1-0.8-0.1-1.3-0.2c-0.4-0.1-0.8-0.1-1.2-0.2c-0.4-0.1-0.9-0.1-1.3-0.2
	c-0.4-0.1-0.8-0.1-1.2-0.2c-0.5-0.1-0.9-0.1-1.4-0.1c-0.4,0-0.8-0.1-1.3-0.1c-0.5,0-1-0.1-1.5-0.1c-0.4,0-0.8-0.1-1.3-0.1
	c-0.6,0-1.2,0-1.7,0c-0.4,0-0.8,0-1.1,0H50.2v0h-4.3c-31.4,0-42.9,17.3-45.8,33.8c0,0,0,0,0,0.1c0,0,0,0.1,0,0.1l0,0
	c0,0.3-0.1,0.6-0.1,0.8c0,2.7,2.2,4.9,4.9,4.9h57.4v0h55.5h15.1h101.4h27.9h101.4h17.5v0h57.4c2.7,0,4.9-2.2,4.9-4.9
	C443.4,225.8,443.3,225.6,443.3,225.3z"/>
<rect x="65.9" y="166.1" class="st1" width="305.5" height="25.3"/>
<linearGradient id="SVGID_2_" gradientUnits="userSpaceOnUse" x1="323.169" y1="5.2565" x2="114.1197" y2="214.3057">
	<stop  offset="0" style="stop-color:#E70C4F"/>
	<stop  offset="6.353316e-02" style="stop-color:#B71049"/>
	<stop  offset="0.1376" style="stop-color:#861342"/>
	<stop  offset="0.2112" style="stop-color:#5D163D"/>
	<stop  offset="0.2829" style="stop-color:#3E1938"/>
	<stop  offset="0.3521" style="stop-color:#271B35"/>
	<stop  offset="0.4177" style="stop-color:#1A1C34"/>
	<stop  offset="0.476" style="stop-color:#151C33"/>
	<stop  offset="1" style="stop-color:#151C33"/>
</linearGradient>
<path class="st2" d="M344,26.2C330,10.9,310.4,0,284.6,0c-32.5,0-53.4,15.3-65.9,15.3C206.1,15.3,185.2,0,152.7,0
	C92.6,0,65.9,59.5,65.9,95s0,71.1,0,71.1h149.3h6.8h149.3c0,0,0-35.5,0-71.1C371.4,74.7,362.7,46.6,344,26.2z"/>
<linearGradient id="SVGID_3_" gradientUnits="userSpaceOnUse" x1="301.3304" y1="96.0379" x2="135.9582" y2="261.4101">
	<stop  offset="0" style="stop-color:#E70C4F"/>
	<stop  offset="6.353316e-02" style="stop-color:#B71049"/>
	<stop  offset="0.1376" style="stop-color:#861342"/>
	<stop  offset="0.2112" style="stop-color:#5D163D"/>
	<stop  offset="0.2829" style="stop-color:#3E1938"/>
	<stop  offset="0.3521" style="stop-color:#271B35"/>
	<stop  offset="0.4177" style="stop-color:#1A1C34"/>
	<stop  offset="0.476" style="stop-color:#151C33"/>
	<stop  offset="1" style="stop-color:#151C33"/>
</linearGradient>
<rect x="65.9" y="166.1" class="st3" width="305.5" height="25.3"/>
<linearGradient id="SVGID_4_" gradientUnits="userSpaceOnUse" x1="335.9815" y1="106.9346" x2="107.3872" y2="335.5289">
	<stop  offset="0" style="stop-color:#E70C4F"/>
	<stop  offset="6.353316e-02" style="stop-color:#B71049"/>
	<stop  offset="0.1376" style="stop-color:#861342"/>
	<stop  offset="0.2112" style="stop-color:#5D163D"/>
	<stop  offset="0.2829" style="stop-color:#3E1938"/>
	<stop  offset="0.3521" style="stop-color:#271B35"/>
	<stop  offset="0.4177" style="stop-color:#1A1C34"/>
	<stop  offset="0.476" style="stop-color:#151C33"/>
	<stop  offset="1" style="stop-color:#151C33"/>
</linearGradient>
<path class="st4" d="M443.3,225.3L443.3,225.3C443.3,225.3,443.3,225.3,443.3,225.3c-1.1-6.7-3.8-13.6-8.6-19.4c0,0,0,0,0,0
	c-0.4-0.4-0.7-0.9-1.1-1.3c0,0-0.1-0.1-0.1-0.1c-0.4-0.4-0.7-0.8-1.1-1.2c0,0-0.1-0.1-0.2-0.1c-0.4-0.4-0.8-0.7-1.1-1.1
	c-0.1-0.1-0.2-0.1-0.2-0.2c-0.4-0.3-0.8-0.7-1.2-1c-0.1-0.1-0.2-0.2-0.3-0.2c-0.4-0.3-0.8-0.6-1.2-0.9c-0.1-0.1-0.3-0.2-0.4-0.3
	c-0.4-0.3-0.8-0.5-1.2-0.8c-0.1-0.1-0.3-0.2-0.5-0.3c-0.4-0.2-0.8-0.5-1.2-0.7c-0.2-0.1-0.4-0.2-0.6-0.3c-0.4-0.2-0.8-0.4-1.2-0.6
	c-0.2-0.1-0.4-0.2-0.7-0.3c-0.4-0.2-0.8-0.4-1.2-0.6c-0.2-0.1-0.5-0.2-0.8-0.3c-0.4-0.2-0.8-0.3-1.2-0.5c-0.3-0.1-0.6-0.2-0.8-0.3
	c-0.4-0.1-0.8-0.3-1.2-0.4c-0.3-0.1-0.6-0.2-0.9-0.3c-0.4-0.1-0.8-0.3-1.2-0.4c-0.3-0.1-0.7-0.2-1-0.3c-0.4-0.1-0.8-0.2-1.2-0.3
	c-0.4-0.1-0.8-0.2-1.2-0.3c-0.4-0.1-0.8-0.2-1.2-0.3c-0.4-0.1-0.8-0.1-1.3-0.2c-0.4-0.1-0.8-0.1-1.2-0.2c-0.4-0.1-0.9-0.1-1.3-0.2
	c-0.4-0.1-0.8-0.1-1.2-0.2c-0.5-0.1-0.9-0.1-1.4-0.1c-0.4,0-0.8-0.1-1.3-0.1c-0.5,0-1-0.1-1.5-0.1c-0.4,0-0.8-0.1-1.3-0.1
	c-0.6,0-1.2,0-1.7,0c-0.4,0-0.8,0-1.1,0H50.2v0h-4.3c-31.4,0-42.9,17.3-45.8,33.8c0,0,0,0,0,0.1c0,0,0,0.1,0,0.1l0,0
	c0,0.3-0.1,0.6-0.1,0.8c0,2.7,2.2,4.9,4.9,4.9h19.4v0h38H93h241.6h29h17.5v0h57.4c2.7,0,4.9-2.2,4.9-4.9
	C443.4,225.8,443.3,225.6,443.3,225.3z"/>
<path d="M387.1,115.5"/>
<g>
	<g>
		<path class="st1" d="M543.3,334.8H640c37.3,0,67.5-30.2,67.5-67.5v0c0-37.3-30.2-67.5-67.5-67.5h-96.7
			c-37.3,0-67.5,30.2-67.5,67.5v0C475.8,304.6,506,334.8,543.3,334.8z"/>
		<path class="st1" d="M640,341.9h-96.7c-41.1,0-74.6-33.5-74.6-74.6s33.5-74.6,74.6-74.6h100.6c41.1,0,70.7,33.5,70.7,74.6
			S681.2,341.9,640,341.9z M543.3,206.8c-33.3,0-60.5,27.1-60.5,60.5s27.1,60.5,60.5,60.5H640c33.3,0,60.5-27.1,60.5-60.5
			s-27.1-60.5-60.5-60.5H543.3z"/>
	</g>
	<linearGradient id="SVGID_5_" gradientUnits="userSpaceOnUse" x1="591.8808" y1="191.7326" x2="591.8808" y2="340.9895">
		<stop  offset="0" style="stop-color:#E70C4F"/>
		<stop  offset="6.353316e-02" style="stop-color:#B71049"/>
		<stop  offset="0.1376" style="stop-color:#861342"/>
		<stop  offset="0.2112" style="stop-color:#5D163D"/>
		<stop  offset="0.2829" style="stop-color:#3E1938"/>
		<stop  offset="0.3521" style="stop-color:#271B35"/>
		<stop  offset="0.4177" style="stop-color:#1A1C34"/>
		<stop  offset="0.476" style="stop-color:#151C33"/>
		<stop  offset="1" style="stop-color:#151C33"/>
	</linearGradient>
	<path class="st5" d="M643.6,192.6H543.5c-41.1,0-74.6,33.5-74.6,74.6c0,41.2,33.5,74.6,74.6,74.6h96.7c41.1,0,74.6-33.5,74.6-74.6
		C714.9,226.1,684.8,192.6,643.6,192.6z"/>
	<path class="st6" d="M277.4,303.6h53.8c20,0,36.3-16.2,36.3-36.3v0c0-20-16.2-36.3-36.3-36.3h-53.8c-20,0-36.3,16.2-36.3,36.3v0
		C241.1,287.3,257.4,303.6,277.4,303.6z"/>
	<linearGradient id="SVGID_6_" gradientUnits="userSpaceOnUse" x1="304.3167" y1="220.3533" x2="304.3167" y2="360.9314">
		<stop  offset="0" style="stop-color:#E70C4F"/>
		<stop  offset="6.353316e-02" style="stop-color:#B71049"/>
		<stop  offset="0.1376" style="stop-color:#861342"/>
		<stop  offset="0.2112" style="stop-color:#5D163D"/>
		<stop  offset="0.2829" style="stop-color:#3E1938"/>
		<stop  offset="0.3521" style="stop-color:#271B35"/>
		<stop  offset="0.4177" style="stop-color:#1A1C34"/>
		<stop  offset="0.476" style="stop-color:#151C33"/>
		<stop  offset="1" style="stop-color:#151C33"/>
	</linearGradient>
	<path class="st7" d="M331.2,223.9h-53.8c-23.9,0-43.4,19.5-43.4,43.4s19.5,43.4,43.4,43.4h53.8c23.9,0,43.4-19.5,43.4-43.4
		S355.1,223.9,331.2,223.9z"/>
	<g>
		<path class="st1" d="M371.9,334.8h96.7c37.3,0,67.5-30.2,67.5-67.5v0c0-37.3-30.2-67.5-67.5-67.5h-96.7
			c-37.3,0-67.5,30.2-67.5,67.5v0C304.3,304.6,334.6,334.8,371.9,334.8z"/>
		<path class="st1" d="M468.6,341.9h-96.7c-41.1,0-74.6-33.5-74.6-74.6s33.5-74.6,74.6-74.6h100.6c41.1,0,70.7,33.5,70.7,74.6
			S509.7,341.9,468.6,341.9z M371.9,206.8c-33.3,0-60.5,27.1-60.5,60.5s27.1,60.5,60.5,60.5h96.7c33.3,0,60.5-27.1,60.5-60.5
			s-27.1-60.5-60.5-60.5H371.9z"/>
	</g>
	<linearGradient id="SVGID_7_" gradientUnits="userSpaceOnUse" x1="420.4271" y1="191.7326" x2="420.4271" y2="340.9895">
		<stop  offset="0" style="stop-color:#E70C4F"/>
		<stop  offset="6.353316e-02" style="stop-color:#B71049"/>
		<stop  offset="0.1376" style="stop-color:#861342"/>
		<stop  offset="0.2112" style="stop-color:#5D163D"/>
		<stop  offset="0.2829" style="stop-color:#3E1938"/>
		<stop  offset="0.3521" style="stop-color:#271B35"/>
		<stop  offset="0.4177" style="stop-color:#1A1C34"/>
		<stop  offset="0.476" style="stop-color:#151C33"/>
		<stop  offset="1" style="stop-color:#151C33"/>
	</linearGradient>
	<path class="st8" d="M472.2,192.6H372.1c-41.1,0-74.6,33.5-74.6,74.6c0,41.2,33.5,74.6,74.6,74.6h96.7c41.1,0,74.6-33.5,74.6-74.6
		C543.4,226.1,513.3,192.6,472.2,192.6z"/>
	<path class="st6" d="M679.5,342.7h70c41.7,0,75.5-33.8,75.5-75.5v0c0-41.7-33.8-75.5-75.5-75.5h-70c-41.7,0-75.5,33.8-75.5,75.5v0
		C604.1,309,637.8,342.7,679.5,342.7z"/>
	<path class="st6" d="M522.6,330.9h59c35.1,0,63.6-28.5,63.6-63.6v0c0-35.1-28.5-63.6-63.6-63.6h-59c-35.1,0-63.6,28.5-63.6,63.6v0
		C459,302.4,487.5,330.9,522.6,330.9z"/>
	<path class="st1" d="M580.1,183.4h-70c-46.3,0-83.9,37.6-83.9,83.9c0,46.3,37.6,83.9,83.9,83.9h70c46.3,0,83.9-37.6,83.9-83.9
		C664,221,626.4,183.4,580.1,183.4z"/>
	<linearGradient id="SVGID_8_" gradientUnits="userSpaceOnUse" x1="545.1484" y1="150.451" x2="545.1484" y2="388.202">
		<stop  offset="0" style="stop-color:#E70C4F"/>
		<stop  offset="6.353316e-02" style="stop-color:#B71049"/>
		<stop  offset="0.1376" style="stop-color:#861342"/>
		<stop  offset="0.2112" style="stop-color:#5D163D"/>
		<stop  offset="0.2829" style="stop-color:#3E1938"/>
		<stop  offset="0.3521" style="stop-color:#271B35"/>
		<stop  offset="0.4177" style="stop-color:#1A1C34"/>
		<stop  offset="0.476" style="stop-color:#151C33"/>
		<stop  offset="1" style="stop-color:#151C33"/>
	</linearGradient>
	<path class="st9" d="M580.1,183.4h-70c-46.3,0-83.9,37.6-83.9,83.9c0,46.3,37.6,83.9,83.9,83.9h70c46.3,0,83.9-37.6,83.9-83.9
		C664,221,626.4,183.4,580.1,183.4z"/>
	<linearGradient id="SVGID_9_" gradientUnits="userSpaceOnUse" x1="714.5149" y1="151.7862" x2="714.5149" y2="389.5372">
		<stop  offset="0" style="stop-color:#E70C4F"/>
		<stop  offset="6.353316e-02" style="stop-color:#B71049"/>
		<stop  offset="0.1376" style="stop-color:#861342"/>
		<stop  offset="0.2112" style="stop-color:#5D163D"/>
		<stop  offset="0.2829" style="stop-color:#3E1938"/>
		<stop  offset="0.3521" style="stop-color:#271B35"/>
		<stop  offset="0.4177" style="stop-color:#1A1C34"/>
		<stop  offset="0.476" style="stop-color:#151C33"/>
		<stop  offset="1" style="stop-color:#151C33"/>
	</linearGradient>
	<path class="st10" d="M749.5,184.7h-70c-46.3,0-83.9,37.6-83.9,83.9c0,46.3,37.6,83.9,83.9,83.9h70c46.3,0,83.9-37.6,83.9-83.9
		C833.4,222.3,795.8,184.7,749.5,184.7z"/>
	<circle class="st6" cx="749.5" cy="267.3" r="75.5"/>
	<g>
		<circle class="st1" cx="580.1" cy="265.8" r="75.5"/>
		<path class="st1" d="M580.1,348.4c-45.5,0-82.6-37-82.6-82.6s37-82.6,82.6-82.6s82.6,37,82.6,82.6S625.7,348.4,580.1,348.4z
			 M580.1,197.4c-37.7,0-68.4,30.7-68.4,68.4c0,37.7,30.7,68.4,68.4,68.4c37.7,0,68.4-30.7,68.4-68.4
			C648.5,228.1,617.8,197.4,580.1,197.4z"/>
	</g>
	<path class="st11" d="M532.7,266.4c0,0,22.6,20.4,50.2,20.4s50-20.4,50-20.4s-22.3-15.3-50-15.3S532.7,266.4,532.7,266.4z"/>
	<path class="st12" d="M614.9,278.4c1.9-3.3,3-7.1,3-11.1c0-3.4-0.8-6.7-2.2-9.6c-8.8-3.4-20.2-6.6-32.8-6.6c-0.8,0-1.6,0-2.4,0
		c-4.3,4-7,9.8-7,16.1c0,8.4,4.6,15.7,11.5,19.4C596.5,286.3,606.8,282.6,614.9,278.4z"/>
	<circle class="st1" cx="595.8" cy="267.3" r="9.3"/>
	<path class="st11" d="M593.8,260.2l0.7-0.7c1.3-1.3,1.3-3.4,0-4.7l0,0c-1.3-1.3-3.4-1.3-4.7,0l-0.7,0.7c-1.3,1.3-1.3,3.4,0,4.7l0,0
		C590.3,261.5,592.5,261.5,593.8,260.2z"/>
	<path class="st11" d="M583.9,270l3-3c1.3-1.3,1.3-3.4,0-4.7l0,0c-1.3-1.3-3.4-1.3-4.7,0l-3,3c-1.3,1.3-1.3,3.4,0,4.7l0,0
		C580.5,271.3,582.6,271.3,583.9,270z"/>
	<path class="st11" d="M709.2,266.4c0,0,22.6,20.4,50.2,20.4c27.7,0,50-20.4,50-20.4s-22.3-15.3-50-15.3
		C731.7,251.1,709.2,266.4,709.2,266.4z"/>
	<path class="st12" d="M791.4,278.4c1.9-3.3,3-7.1,3-11.1c0-3.4-0.8-6.7-2.2-9.6c-8.8-3.4-20.2-6.6-32.8-6.6c-0.8,0-1.6,0-2.4,0
		c-4.3,4-7,9.8-7,16.1c0,8.4,4.6,15.7,11.5,19.4C772.9,286.3,783.2,282.6,791.4,278.4z"/>
	<circle class="st1" cx="772.2" cy="267.3" r="9.3"/>
	<path class="st11" d="M770.2,260.2l0.7-0.7c1.3-1.3,1.3-3.4,0-4.7l0,0c-1.3-1.3-3.4-1.3-4.7,0l-0.7,0.7c-1.3,1.3-1.3,3.4,0,4.7v0
		C766.8,261.5,768.9,261.5,770.2,260.2z"/>
	<path class="st11" d="M761,269.4l3-3c1.3-1.3,1.3-3.4,0-4.7l0,0c-1.3-1.3-3.4-1.3-4.7,0l-3,3c-1.3,1.3-1.3,3.4,0,4.7l0,0
		C757.6,270.7,759.7,270.7,761,269.4z"/>
</g>
</svg>
