<?xml version="1.0" encoding="utf-8"?>
<!-- Generator: Adobe Illustrator 21.0.1, SVG Export Plug-In . SVG Version: 6.00 Build 0)  -->
<svg version="1.1" id="Layer_1" xmlns="http://www.w3.org/2000/svg" xmlns:xlink="http://www.w3.org/1999/xlink" x="0px" y="0px"
	 viewBox="0 0 1920 1080" style="enable-background:new 0 0 1920 1080;" xml:space="preserve">
<style type="text/css">
	.st0{fill:#FFFFFF;}
	.st1{fill:#E6F9FC;}
	.st2{fill:#D9F9FF;}
	.st3{fill:#AEF3FC;}
</style>
<g>
	<path class="st0" d="M1429.8,221.5h-267.2c-20,0-36.2,16.2-36.2,36.2v300.2c0,20,16.2,36.2,36.2,36.2h267.2
		c20,0,36.2-16.2,36.2-36.2V257.7C1465.9,237.7,1449.7,221.5,1429.8,221.5z"/>
</g>
<g>
	<path class="st0" d="M1405.8,832.9l-22.1-134.2h-175.9l-22.1,134.2c-0.9,2.6-1.4,5.4-1.4,8.4c0,12.3,8.3,22.2,18.4,22.2h186.1
		c10.2,0,18.4-9.9,18.4-22.2C1407.2,838.4,1406.7,835.5,1405.8,832.9z"/>
</g>
<g>
	<path class="st0" d="M1398.6,801.3h-207.9c-17.2,0-31.1,13.9-31.1,31.1l0,0v31.1h31.1h207.9h31.1v-31.1l0,0
		C1429.8,815.2,1415.8,801.3,1398.6,801.3z"/>
</g>
<g>
	<path class="st1" d="M1398.6,801.3h-207.9c-17.2,0-31.1,13.9-31.1,31.1l0,0v31.1h31.1h207.9h31.1v-31.1l0,0
		C1429.8,815.2,1415.8,801.3,1398.6,801.3z"/>
</g>
<g>
	<path class="st0" d="M1296.2,767.7c95.9,0,173.7-77.7,173.7-173.7h-347.3C1122.5,690,1200.3,767.7,1296.2,767.7z"/>
</g>
<g>
	<path class="st1" d="M1249.6,761.4c14.8,4.1,30.5,6.3,46.7,6.3c95.9,0,173.7-77.7,173.7-173.7h-93.3
		C1376.6,673.8,1322.8,741,1249.6,761.4z"/>
</g>
<g>
	<path class="st1" d="M1440,610h-316.8c0.4,4.4,1,8.8,1.7,13.2h315V610H1440z"/>
</g>
<g>
	<path class="st0" d="M1353.5,801.3h-162.7v62.2h162.7h31.1v-31.1l0,0C1384.6,815.2,1370.7,801.3,1353.5,801.3z"/>
</g>
<g>
	<path class="st0" d="M1190.8,801.3h162.7v62.2h-162.7h-31.1v-31.1l0,0C1159.7,815.2,1173.6,801.3,1190.8,801.3z"/>
</g>
<g>
	<polygon class="st1" points="1344.1,739.9 1354.1,801.3 1400.6,801.4 1390.5,739.9 	"/>
</g>
<g>
	<path class="st0" d="M1427.9,585.7V445c0-83.4-57.2-151-127.9-151h-7.2c-70.6,0-127.9,67.6-127.9,151v140.7H1427.9z"/>
	<path class="st2" d="M1443.1,600.9h-293.2V445c0-91.6,64.2-166.1,143-166.1h7.2c78.9,0,143,74.5,143,166.1L1443.1,600.9
		L1443.1,600.9z M1180.2,570.5h232.6V445c0-74.9-50.6-135.8-112.7-135.8h-7.2c-62.1,0-112.7,60.9-112.7,135.8L1180.2,570.5
		L1180.2,570.5z"/>
</g>
<g>
	<path class="st1" d="M1468.2,256.3h-345c-11,0-19.9-8.9-19.9-19.9l0,0c0-11,8.9-19.9,19.9-19.9h345c11,0,19.9,8.9,19.9,19.9l0,0
		C1488.1,247.4,1479.2,256.3,1468.2,256.3z"/>
</g>
<g>
	<path class="st0" d="M1356.6,256.3h-233c-11,0-19.9-8.9-19.9-19.9l0,0c0-11,8.9-19.9,19.9-19.9h233c11,0,19.9,8.9,19.9,19.9l0,0
		C1376.6,247.4,1367.6,256.3,1356.6,256.3z"/>
</g>
<g>
	<circle class="st1" cx="1433.1" cy="308.9" r="23.6"/>
</g>
<g>
	<path class="st1" d="M1487,308.9h-48.3c-6.5,0-11.8-5.3-11.8-11.8l0,0c0-6.5,5.3-11.8,11.8-11.8h48.3c6.5,0,11.8,5.3,11.8,11.8l0,0
		C1498.7,303.6,1493.5,308.9,1487,308.9z"/>
</g>
<g>
	<rect x="1433.1" y="285.3" class="st1" width="65.6" height="11.8"/>
</g>
<g>
	<path class="st0" d="M1426.9,594.1c0-0.4,0-0.7,0-1.1V422.2c0-72.3-58.6-130.9-130.9-130.9l0,0c-72.3,0-130.9,58.6-130.9,130.9V593
		c0,0.4,0,0.7,0,1.1H1426.9z"/>
	<path class="st1" d="M1426.9,609.2H1150l-0.1-16.3V422.2c0-80.6,65.5-146.1,146.1-146.1s146.1,65.5,146.1,146.1l-0.1,186.9
		L1426.9,609.2z M1180.2,578.9h231.5V422.2c0-63.8-51.9-115.8-115.8-115.8c-63.8,0-115.8,51.9-115.8,115.8v156.7H1180.2z"/>
</g>
<g>
	<path class="st1" d="M1468.2,610h-345c-11,0-19.9-8.9-19.9-19.9l0,0c0-11,8.9-19.9,19.9-19.9h345c11,0,19.9,8.9,19.9,19.9l0,0
		C1488.1,601.1,1479.2,610,1468.2,610z"/>
</g>
<g>
	<path class="st0" d="M1356.6,610h-233c-11,0-19.9-8.9-19.9-19.9l0,0c0-11,8.9-19.9,19.9-19.9h233c11,0,19.9,8.9,19.9,19.9l0,0
		C1376.6,601.1,1367.6,610,1356.6,610z"/>
</g>
<g>
	<rect x="1576.6" y="401" class="st0" width="108.4" height="38.4"/>
</g>
<g>
	<path class="st3" d="M1573.4,445.5l-2.5-4.4l1.2,2.2l-1.2-2.2c0.1,0,5.7-3.2,13.7-10.7c7.4-6.9,18.5-19,29.1-37.4l4.3,2.5
		C1597,431.9,1574.4,444.9,1573.4,445.5z"/>
</g>
<g>
	<path class="st3" d="M1646.7,445.5l-2.5-4.4c0.1,0,5.7-3.2,13.7-10.7c7.4-6.9,18.5-19,29.1-37.4l4.3,2.5
		C1670.3,431.9,1647.6,444.9,1646.7,445.5z"/>
</g>
<g>
	<path class="st3" d="M1610.1,445.5l-2.5-4.4l1.2,2.2l-1.2-2.2c0.1,0,5.7-3.2,13.7-10.7c7.4-6.9,18.5-19,29.1-37.4l4.3,2.5
		C1633.7,431.9,1611.1,444.9,1610.1,445.5z"/>
</g>
</svg>
